<?xml version="1.0" encoding="utf-8" standalone="no"?>
<svg viewBox="0 0 1024 1024" version="1.1" xmlns="http://www.w3.org/2000/svg" xmlns:xlink="http://www.w3.org/1999/xlink" stroke-linecap="round" stroke-linejoin="round" fill-rule="evenodd" xml:space="preserve" >
<g fill="none" stroke="rgb(0,0,0)" stroke-width="1.28" >
<polygon points="923.57,522.69 915.886,530.374 897.512,512 897.512,239.402 871.055,239.402 871.055,228.535 810.583,228.535 810.583,239.402 784.598,239.402 591.842,46.6461 573.134,65.3538 565.451,57.67 522.69,100.43 530.374,108.114 512,126.488 239.402,126.488 239.402,152.945 228.535,152.945 228.535,213.417 239.402,213.417 239.402,239.402 46.6461,432.158 65.3538,450.866 57.67,458.549 100.43,501.31 108.114,493.626 126.488,512 126.488,784.598 152.945,784.598 152.945,795.465 213.417,795.465 213.417,784.598 239.402,784.598 432.158,977.354 450.866,958.646 458.549,966.33 501.31,923.57 493.626,915.886 512,897.512 784.598,897.512 784.598,871.055 795.465,871.055 795.465,810.583 784.598,810.583 784.598,784.598 977.354,591.842 958.646,573.134 966.33,565.451 " />
<polygon points="840.819,512 840.802,508.712 840.753,505.424 840.671,502.137 840.556,498.851 840.408,495.566 840.227,492.283 840.014,489.001 839.767,485.723 839.488,482.446 839.176,479.173 838.832,475.903 838.454,472.636 838.044,469.374 837.602,466.116 837.127,462.862 836.619,459.613 836.079,456.37 835.506,453.132 834.902,449.9 834.264,446.674 833.595,443.454 832.894,440.242 832.16,437.037 831.394,433.839 830.597,430.649 829.767,427.467 828.906,424.294 828.013,421.129 827.089,417.974 826.133,414.827 825.145,411.691 824.127,408.565 823.077,405.449 821.996,402.343 820.883,399.249 819.741,396.166 818.567,393.094 817.362,390.034 816.128,386.987 814.862,383.952 813.567,380.93 812.241,377.921 810.885,374.925 809.499,371.943 808.084,368.975 806.639,366.021 805.165,363.082 803.661,360.158 802.128,357.249 800.566,354.356 798.975,351.478 797.355,348.616 795.707,345.771 794.031,342.942 792.326,340.131 790.593,337.336 788.833,334.559 787.045,331.799 785.229,329.058 783.386,326.335 781.516,323.63 779.619,320.945 777.695,318.278 775.744,315.631 773.767,313.003 771.764,310.396 769.735,307.808 767.681,305.241 765.6,302.695 763.495,300.169 761.364,297.665 759.208,295.182 757.027,292.721 754.822,290.281 752.593,287.864 750.34,285.47 748.063,283.098 745.762,280.748 743.438,278.422 741.09,276.12 738.72,273.841 736.327,271.585 733.912,269.354 731.474,267.147 729.015,264.965 726.534,262.807 724.031,260.674 721.507,258.566 718.963,256.484 716.397,254.427 713.811,252.396 711.205,250.391 708.579,248.412 705.933,246.46 703.268,244.534 700.584,242.634 697.881,240.762 695.16,238.917 692.42,237.099 689.662,235.308 686.886,233.546 684.093,231.811 681.282,230.104 678.455,228.425 675.611,226.775 672.75,225.153 669.874,223.56 666.982,221.996 664.074,220.46 661.151,218.954 658.213,217.477 655.261,216.03 652.294,214.612 649.313,213.224 646.318,211.866 643.31,210.538 640.289,209.24 637.255,207.972 634.209,206.735 631.15,205.528 628.079,204.352 624.997,203.206 621.904,202.092 618.799,201.008 615.684,199.956 612.558,198.935 609.423,197.945 606.277,196.986 603.123,196.059 599.959,195.164 596.786,194.3 593.605,193.468 590.415,192.668 587.218,191.9 584.014,191.164 580.802,190.46 577.583,189.788 574.357,189.148 571.126,188.541 567.888,187.966 564.645,187.423 561.397,186.913 558.144,186.435 554.886,185.99 551.624,185.577 548.357,185.197 545.088,184.85 541.815,184.536 538.538,184.254 535.26,184.005 531.979,183.789 528.696,183.605 525.411,183.455 522.125,183.337 518.838,183.252 515.55,183.2 512.262,183.181 508.974,183.195 505.686,183.242 502.399,183.321 499.112,183.434 495.827,183.579 492.544,183.757 489.263,183.968 485.984,184.212 482.707,184.488 479.433,184.798 476.163,185.14 472.896,185.515 469.633,185.922 466.375,186.362 463.121,186.834 459.872,187.339 456.628,187.877 453.389,188.447 450.157,189.049 446.93,189.684 443.711,190.35 440.498,191.049 437.292,191.78 434.093,192.544 430.903,193.339 427.72,194.165 424.546,195.024 421.381,195.915 418.224,196.837 415.078,197.79 411.94,198.775 408.813,199.791 405.696,200.839 402.59,201.917 399.495,203.027 396.411,204.167 393.338,205.339 390.278,206.54 387.229,207.773 384.193,209.036 381.17,210.329 378.16,211.652 375.163,213.006 372.18,214.389 369.211,215.802 366.256,217.245 363.316,218.717 360.391,220.218 357.48,221.749 354.586,223.309 351.707,224.897 348.844,226.515 345.997,228.16 343.167,229.835 340.354,231.537 337.558,233.268 334.779,235.026 332.018,236.812 329.276,238.625 326.551,240.466 323.845,242.334 321.158,244.229 318.49,246.151 315.841,248.099 313.212,250.074 310.603,252.075 308.013,254.102 305.445,256.155 302.897,258.233 300.369,260.337 297.863,262.466 295.379,264.619 292.916,266.798 290.475,269.001 288.056,271.228 285.659,273.48 283.286,275.755 280.935,278.054 278.607,280.376 276.302,282.722 274.021,285.09 271.764,287.481 269.531,289.895 267.322,292.331 265.138,294.788 262.978,297.268 260.843,299.769 258.733,302.291 256.649,304.834 254.59,307.398 252.557,309.982 250.55,312.587 248.569,315.211 246.614,317.855 244.686,320.519 242.785,323.201 240.91,325.903 239.063,328.623 237.243,331.362 235.45,334.118 233.685,336.892 231.948,339.684 230.239,342.493 228.558,345.319 226.905,348.162 225.281,351.021 223.686,353.896 222.119,356.787 220.582,359.694 219.073,362.616 217.594,365.552 216.144,368.504 214.724,371.469 213.334,374.449 211.973,377.443 210.642,380.45 209.342,383.47 208.072,386.503 206.832,389.548 205.623,392.606 204.444,395.676 203.296,398.757 202.179,401.85 201.093,404.953 200.039,408.068 199.015,411.192 198.022,414.327 197.061,417.472 196.132,420.626 195.234,423.789 194.368,426.961 193.533,430.142 192.731,433.33 191.96,436.527 191.221,439.731 190.515,442.942 189.84,446.161 189.198,449.385 188.588,452.617 188.01,455.854 187.465,459.096 186.952,462.344 186.472,465.597 186.024,468.855 185.609,472.116 185.226,475.382 184.877,478.652 184.559,481.925 184.275,485.201 184.023,488.479 183.805,491.76 183.619,495.043 183.465,498.327 183.345,501.613 183.258,504.9 183.203,508.188 183.182,511.476 183.193,514.764 183.237,518.052 183.314,521.34 183.424,524.626 183.566,527.911 183.742,531.195 183.95,534.476 184.191,537.755 184.465,541.032 184.772,544.306 185.111,547.577 185.483,550.844 185.888,554.107 186.326,557.366 186.796,560.62 187.298,563.87 187.833,567.114 188.4,570.353 189,573.586 189.632,576.813 190.296,580.033 190.993,583.247 191.721,586.453 192.482,589.652 193.274,592.844 194.098,596.027 194.955,599.202 195.842,602.368 196.762,605.525 197.713,608.672 198.695,611.81 199.709,614.938 200.754,618.056 201.83,621.163 202.937,624.259 204.075,627.344 205.244,630.418 206.444,633.479 207.674,636.529 208.934,639.566 210.225,642.59 211.546,645.601 212.897,648.599 214.278,651.583 215.689,654.553 217.129,657.509 218.599,660.45 220.098,663.377 221.626,666.288 223.184,669.184 224.77,672.065 226.385,674.929 228.028,677.777 229.7,680.608 231.4,683.423 233.129,686.22 234.885,689 236.669,691.762 238.48,694.507 240.319,697.233 242.185,699.94 244.077,702.629 245.997,705.299 247.943,707.949 249.916,710.58 251.915,713.19 253.94,715.781 255.99,718.352 258.067,720.901 260.168,723.43 262.295,725.938 264.447,728.424 266.624,730.889 268.825,733.332 271.05,735.752 273.3,738.151 275.573,740.526 277.87,742.879 280.191,745.209 282.534,747.515 284.901,749.798 287.29,752.057 289.702,754.292 292.136,756.503 294.592,758.689 297.07,760.851 299.569,762.988 302.089,765.1 304.631,767.186 307.193,769.247 309.776,771.282 312.378,773.291 315.001,775.274 317.644,777.231 320.306,779.161 322.987,781.065 325.687,782.942 328.406,784.791 331.143,786.613 333.898,788.408 336.671,790.175 339.461,791.915 342.269,793.626 345.094,795.309 347.935,796.964 350.793,798.591 353.667,800.188 356.557,801.757 359.462,803.297 362.382,804.808 365.318,806.289 368.268,807.741 371.233,809.164 374.211,810.557 377.204,811.92 380.21,813.253 383.229,814.555 386.261,815.828 389.305,817.07 392.362,818.282 395.431,819.463 398.511,820.613 401.603,821.733 404.706,822.821 407.819,823.879 410.943,824.905 414.077,825.9 417.221,826.863 420.374,827.795 423.537,828.696 426.708,829.564 429.888,830.401 433.076,831.207 436.272,831.98 439.476,832.721 442.686,833.43 445.904,834.107 449.128,834.752 452.359,835.365 455.596,835.945 458.838,836.493 462.085,837.008 465.338,837.491 468.595,837.942 471.857,838.359 475.122,838.744 478.391,839.097 481.664,839.417 484.94,839.704 488.218,839.958 491.499,840.179 494.781,840.368 498.066,840.524 501.352,840.646 504.639,840.736 507.926,840.794 511.214,840.818 514.503,840.809 517.791,840.768 521.078,840.694 524.364,840.586 527.649,840.446 530.933,840.273 534.215,840.068 537.494,839.829 540.771,839.558 544.045,839.254 547.316,838.917 550.584,838.547 553.847,838.145 557.106,837.71 560.361,837.243 563.611,836.743 566.856,836.211 570.095,835.646 573.329,835.049 576.556,834.42 579.777,833.758 582.991,833.064 586.198,832.338 589.398,831.58 592.59,830.79 595.774,829.968 598.949,829.115 602.116,828.229 605.273,827.312 608.422,826.364 611.561,825.384 614.689,824.373 617.808,823.33 620.916,822.257 624.013,821.152 627.099,820.016 630.173,818.85 633.236,817.653 636.286,816.425 639.324,815.167 642.349,813.879 645.362,812.56 648.361,811.212 651.346,809.833 654.317,808.425 657.274,806.987 660.217,805.519 663.145,804.023 666.057,802.497 668.954,800.942 671.836,799.358 674.701,797.745 677.551,796.104 680.383,794.434 683.199,792.736 685.998,791.01 688.779,789.256 691.543,787.474 694.289,785.665 697.016,783.829 699.725,781.965 702.415,780.074 705.087,778.157 707.739,776.213 710.371,774.242 712.983,772.245 715.576,770.222 718.148,768.174 720.699,766.1 723.23,764 725.739,761.875 728.227,759.725 730.693,757.551 733.138,755.351 735.56,753.128 737.96,750.88 740.338,748.609 742.692,746.314 745.024,743.995 747.332,741.653 749.617,739.288 751.878,736.901 754.115,734.491 756.328,732.059 758.516,729.604 760.68,727.128 762.819,724.631 764.932,722.112 767.021,719.572 769.084,717.012 771.121,714.431 773.132,711.83 775.117,709.208 777.076,706.567 779.009,703.907 780.914,701.227 782.793,698.529 784.645,695.811 786.469,693.076 788.266,690.322 790.036,687.551 791.777,684.761 793.491,681.955 795.176,679.132 796.833,676.292 798.462,673.435 800.062,670.563 801.633,667.674 803.176,664.77 804.689,661.851 806.173,658.916 807.627,655.967 809.052,653.004 810.447,650.026 811.812,647.035 813.148,644.03 814.453,641.012 815.728,637.981 816.972,634.938 818.187,631.882 819.37,628.814 820.523,625.735 821.645,622.644 822.736,619.542 823.795,616.429 824.824,613.306 825.822,610.173 826.788,607.03 827.722,603.877 828.625,600.715 829.496,597.545 830.336,594.366 831.144,591.178 831.92,587.983 832.663,584.78 833.375,581.57 834.055,578.352 834.702,575.129 835.317,571.898 835.9,568.662 836.45,565.421 836.968,562.173 837.454,558.921 837.907,555.664 838.327,552.403 838.715,549.138 839.07,545.869 839.392,542.597 839.682,539.321 839.939,536.043 840.163,532.763 840.354,529.48 840.512,526.196 840.638,522.91 840.731,519.623 840.79,516.335 840.817,513.047 " />
</g>
</svg>
