<?xml version="1.0" encoding="utf-8" standalone="no"?>
<svg viewBox="0 0 1024 1024" version="1.1" xmlns="http://www.w3.org/2000/svg" xmlns:xlink="http://www.w3.org/1999/xlink" stroke-linecap="round" stroke-linejoin="round" fill-rule="evenodd" xml:space="preserve" >
<g fill="none" stroke="rgb(0,0,0)" stroke-width="1.28" >
<polygon points="512,897.512 493.626,915.886 501.31,923.57 458.549,966.33 450.866,958.646 432.158,977.354 239.402,784.598 213.417,784.598 213.417,795.465 152.945,795.465 152.945,784.598 126.488,784.598 126.488,512 108.114,493.626 100.43,501.31 57.67,458.549 65.3538,450.866 46.6461,432.158 239.402,239.402 239.402,213.417 228.535,213.417 228.535,152.945 239.402,152.945 239.402,126.488 512,126.488 530.374,108.114 522.69,100.43 565.451,57.67 573.134,65.3538 591.842,46.6461 784.598,239.402 810.583,239.402 810.583,228.535 871.055,228.535 871.055,239.402 897.512,239.402 897.512,512 915.886,530.374 923.57,522.69 966.33,565.451 958.646,573.134 977.354,591.842 784.598,784.598 784.598,810.583 795.465,810.583 795.465,871.055 784.598,871.055 784.598,897.512 " />
<polygon points="776.567,512 776.565,511.622 776.559,511.244 776.55,510.866 776.537,510.489 776.52,510.111 776.499,509.734 776.474,509.356 776.446,508.98 776.414,508.603 776.378,508.227 776.338,507.851 776.295,507.475 776.248,507.1 776.197,506.726 776.143,506.352 776.084,505.979 776.022,505.606 775.956,505.234 775.887,504.862 775.814,504.491 775.737,504.121 775.656,503.752 775.572,503.384 775.484,503.016 775.392,502.649 775.297,502.284 775.198,501.919 775.095,501.555 774.989,501.192 774.879,500.831 774.765,500.47 774.648,500.111 774.528,499.753 774.403,499.396 774.276,499.04 774.144,498.686 774.009,498.333 773.871,497.981 773.729,497.631 773.583,497.282 773.434,496.934 773.282,496.589 773.126,496.244 772.967,495.902 772.804,495.56 772.638,495.221 772.469,494.883 772.296,494.547 772.12,494.213 771.94,493.88 771.757,493.549 771.571,493.22 771.382,492.893 771.189,492.568 770.993,492.245 770.794,491.924 770.592,491.604 770.386,491.287 770.177,490.972 769.965,490.659 769.75,490.348 769.532,490.04 769.311,489.733 769.087,489.429 768.86,489.127 768.63,488.827 768.396,488.53 768.16,488.235 767.921,487.942 767.679,487.652 767.434,487.364 767.186,487.078 766.936,486.795 766.682,486.515 766.426,486.237 766.167,485.962 765.905,485.689 765.641,485.419 765.374,485.152 765.104,484.887 764.831,484.625 764.556,484.366 764.279,484.11 763.999,483.856 763.716,483.605 763.431,483.357 763.143,483.112 762.853,482.87 762.56,482.63 762.266,482.394 761.968,482.16 761.669,481.93 761.367,481.703 761.063,481.478 760.757,481.257 760.448,481.038 760.137,480.823 759.824,480.611 759.51,480.402 759.193,480.196 758.873,479.994 758.552,479.794 758.229,479.598 757.904,479.405 757.577,479.216 757.249,479.029 756.918,478.846 756.586,478.666 756.251,478.49 755.915,478.317 755.578,478.147 755.238,477.98 754.897,477.817 754.555,477.658 754.211,477.502 753.865,477.349 753.518,477.2 753.169,477.054 752.819,476.912 752.467,476.773 752.114,476.638 751.76,476.506 751.404,476.378 751.047,476.254 750.689,476.133 750.33,476.015 749.97,475.902 749.608,475.792 749.246,475.685 748.882,475.582 748.517,475.483 748.152,475.387 747.785,475.295 747.417,475.207 747.049,475.122 746.68,475.041 746.31,474.964 745.939,474.891 745.568,474.821 745.196,474.755 744.823,474.692 744.449,474.634 744.076,474.579 743.701,474.528 743.326,474.48 742.951,474.436 742.575,474.397 742.199,474.36 741.822,474.328 741.445,474.299 741.068,474.275 740.691,474.253 740.313,474.236 739.935,474.223 739.558,474.213 739.18,474.207 738.802,474.205 738.424,474.206 738.046,474.212 737.668,474.221 737.29,474.234 736.913,474.25 736.535,474.271 736.158,474.295 735.781,474.323 735.405,474.355 735.028,474.391 734.652,474.43 734.277,474.473 733.902,474.52 733.527,474.57 733.153,474.625 732.78,474.683 732.407,474.744 732.035,474.81 731.663,474.879 731.292,474.952 730.922,475.029 730.553,475.109 730.184,475.193 729.817,475.281 729.45,475.372 729.084,475.467 728.719,475.566 728.356,475.668 727.993,475.774 727.631,475.884 727.271,475.997 726.911,476.114 726.553,476.234 726.196,476.358 725.84,476.486 725.486,476.617 725.132,476.752 724.781,476.89 724.43,477.031 724.081,477.177 723.734,477.325 723.388,477.477 723.043,477.633 722.7,477.792 722.359,477.954 722.019,478.12 721.682,478.289 721.345,478.462 721.011,478.638 720.678,478.817 720.347,479 720.018,479.186 719.691,479.375 719.366,479.567 719.042,479.763 718.721,479.962 718.401,480.164 718.084,480.369 717.769,480.578 717.456,480.789 717.145,481.004 716.836,481.222 716.529,481.443 716.225,481.667 715.922,481.894 715.623,482.124 715.325,482.357 715.03,482.593 714.737,482.831 714.446,483.073 714.158,483.318 713.873,483.565 713.59,483.816 713.309,484.069 713.031,484.325 712.756,484.584 712.483,484.845 712.212,485.11 711.945,485.377 711.68,485.646 711.418,485.918 711.158,486.193 710.902,486.471 710.648,486.751 710.397,487.033 710.148,487.318 709.903,487.606 709.661,487.896 709.421,488.188 709.184,488.483 708.951,488.78 708.72,489.079 708.492,489.381 708.268,489.685 708.046,489.991 707.827,490.299 707.612,490.61 707.4,490.922 707.19,491.237 706.984,491.554 706.781,491.873 706.582,492.194 706.385,492.516 706.192,492.841 706.002,493.168 705.815,493.497 705.632,493.827 705.452,494.159 705.275,494.494 705.102,494.829 704.932,495.167 704.765,495.506 704.602,495.847 704.442,496.19 704.286,496.534 704.133,496.879 703.983,497.226 703.837,497.575 703.695,497.925 703.556,498.277 703.42,498.629 703.288,498.984 703.16,499.339 703.035,499.696 702.914,500.054 702.796,500.413 702.682,500.773 702.572,501.135 702.465,501.497 702.362,501.861 702.262,502.225 702.166,502.591 702.074,502.958 701.985,503.325 701.901,503.693 701.819,504.062 701.742,504.432 701.668,504.803 701.598,505.174 701.531,505.546 701.469,505.919 701.41,506.292 701.355,506.666 701.303,507.041 701.255,507.416 701.211,507.791 701.171,508.167 701.135,508.543 701.102,508.92 701.073,509.296 701.048,509.674 701.027,510.051 701.009,510.428 700.995,510.806 700.985,511.184 700.979,511.562 700.976,511.94 700.978,512.318 700.983,512.696 700.992,513.074 701.004,513.451 701.021,513.829 701.041,514.206 701.065,514.583 701.092,514.96 701.124,515.337 701.159,515.713 701.198,516.089 701.241,516.465 701.288,516.84 701.338,517.214 701.392,517.589 701.45,517.962 701.511,518.335 701.576,518.707 701.645,519.079 701.718,519.45 701.794,519.82 701.874,520.189 701.958,520.558 702.045,520.926 702.136,521.292 702.231,521.658 702.33,522.023 702.432,522.387 702.537,522.75 702.647,523.112 702.76,523.472 702.876,523.832 702.996,524.19 703.12,524.547 703.247,524.903 703.378,525.258 703.512,525.611 703.65,525.963 703.792,526.314 703.937,526.663 704.085,527.01 704.237,527.356 704.392,527.701 704.551,528.044 704.713,528.385 704.878,528.725 705.047,529.063 705.22,529.4 705.395,529.734 705.574,530.067 705.757,530.398 705.942,530.727 706.131,531.055 706.323,531.38 706.519,531.704 706.717,532.025 706.919,532.345 707.124,532.662 707.333,532.978 707.544,533.291 707.758,533.602 707.976,533.911 708.197,534.218 708.42,534.523 708.647,534.825 708.877,535.125 709.11,535.423 709.345,535.719 709.584,536.012 709.825,536.302 710.07,536.591 710.317,536.876 710.567,537.16 710.82,537.44 711.076,537.719 711.335,537.994 711.596,538.267 711.86,538.538 712.127,538.806 712.396,539.071 712.668,539.333 712.943,539.593 713.22,539.85 713.5,540.104 713.782,540.355 714.067,540.604 714.354,540.849 714.644,541.092 714.936,541.332 715.231,541.569 715.527,541.803 715.827,542.033 716.128,542.261 716.432,542.486 716.738,542.708 717.046,542.927 717.356,543.143 717.669,543.355 717.983,543.565 718.3,543.771 718.619,543.974 718.94,544.174 719.262,544.371 719.587,544.564 719.914,544.755 720.242,544.941 720.572,545.125 720.905,545.305 721.239,545.482 721.574,545.656 721.912,545.826 722.251,545.993 722.592,546.157 722.934,546.317 723.278,546.474 723.623,546.627 723.97,546.776 724.319,546.923 724.669,547.066 725.02,547.205 725.373,547.341 725.727,547.473 726.082,547.601 726.439,547.727 726.797,547.848 727.156,547.966 727.516,548.08 727.878,548.191 728.24,548.298 728.603,548.402 728.968,548.502 729.333,548.598 729.7,548.69 730.067,548.779 730.436,548.865 730.805,548.946 731.174,549.024 731.545,549.098 731.916,549.168 732.288,549.235 732.661,549.298 733.034,549.357 733.408,549.413 733.783,549.465 734.157,549.513 734.533,549.557 734.909,549.597 735.285,549.634 735.661,549.667 736.038,549.696 736.415,549.722 736.793,549.743 737.17,549.761 737.548,549.775 737.926,549.786 738.303,549.792 738.681,549.795 739.059,549.794 739.437,549.789 739.815,549.781 740.193,549.769 740.57,549.752 740.948,549.733 741.325,549.709 741.702,549.682 742.079,549.65 742.455,549.615 742.831,549.577 743.207,549.534 743.582,549.488 743.956,549.438 744.33,549.384 744.704,549.327 745.077,549.266 745.449,549.201 745.821,549.132 746.192,549.06 746.562,548.984 746.932,548.904 747.3,548.82 747.668,548.733 748.035,548.643 748.401,548.548 748.766,548.45 749.13,548.348 749.493,548.243 749.855,548.134 750.215,548.021 750.575,547.905 750.933,547.785 751.291,547.662 751.647,547.535 752.001,547.404 752.355,547.27 752.707,547.133 753.057,546.991 753.407,546.847 753.754,546.699 754.101,546.547 754.445,546.392 754.788,546.234 755.13,546.072 755.47,545.907 755.808,545.738 756.145,545.566 756.479,545.39 756.812,545.212 757.144,545.03 757.473,544.844 757.8,544.656 758.126,544.464 758.45,544.269 758.771,544.07 759.091,543.869 759.409,543.664 759.724,543.456 760.038,543.245 760.349,543.03 760.658,542.813 760.966,542.593 761.27,542.369 761.573,542.143 761.873,541.913 762.171,541.681 762.467,541.445 762.76,541.207 763.051,540.966 763.339,540.721 763.625,540.474 763.909,540.224 764.19,539.971 764.468,539.716 764.744,539.458 765.017,539.196 765.288,538.933 765.556,538.666 765.821,538.397 766.084,538.125 766.344,537.851 766.601,537.574 766.855,537.294 767.107,537.012 767.356,536.727 767.601,536.44 767.844,536.151 768.084,535.859 768.321,535.565 768.556,535.268 768.787,534.969 769.015,534.668 769.24,534.364 769.462,534.058 769.681,533.75 769.897,533.44 770.11,533.128 770.32,532.813 770.526,532.497 770.73,532.178 770.93,531.858 771.127,531.535 771.321,531.211 771.511,530.884 771.698,530.556 771.882,530.226 772.063,529.894 772.24,529.56 772.414,529.224 772.585,528.887 772.752,528.548 772.916,528.207 773.076,527.865 773.233,527.521 773.386,527.176 773.536,526.829 773.683,526.481 773.826,526.131 773.966,525.78 774.102,525.427 774.234,525.073 774.363,524.718 774.488,524.361 774.61,524.003 774.728,523.644 774.843,523.284 774.954,522.923 775.062,522.561 775.165,522.197 775.265,521.833 775.362,521.467 775.455,521.101 775.544,520.734 775.63,520.365 775.711,519.997 775.789,519.627 775.864,519.256 775.935,518.885 776.002,518.513 776.065,518.14 776.124,517.767 776.18,517.393 776.232,517.019 776.281,516.644 776.325,516.269 776.366,515.893 776.403,515.517 776.436,515.14 776.466,514.764 776.492,514.387 776.513,514.009 776.532,513.632 776.546,513.254 776.557,512.876 776.564,512.498 776.567,512.12 " />
<polygon points="389.444,351.648 389.442,351.27 389.436,350.892 389.426,350.515 389.413,350.137 389.396,349.759 389.375,349.382 389.351,349.005 389.323,348.628 389.291,348.251 389.255,347.875 389.215,347.499 389.172,347.124 389.125,346.749 389.074,346.374 389.019,346 388.961,345.627 388.899,345.254 388.833,344.882 388.763,344.51 388.69,344.139 388.613,343.769 388.533,343.4 388.448,343.032 388.36,342.664 388.269,342.298 388.173,341.932 388.074,341.567 387.972,341.203 387.865,340.841 387.755,340.479 387.642,340.118 387.525,339.759 387.404,339.401 387.28,339.044 387.152,338.688 387.021,338.334 386.886,337.981 386.747,337.629 386.605,337.279 386.46,336.93 386.311,336.583 386.159,336.237 386.003,335.892 385.844,335.55 385.681,335.209 385.515,334.869 385.345,334.531 385.172,334.195 384.996,333.861 384.817,333.528 384.634,333.197 384.448,332.869 384.258,332.541 384.066,332.216 383.87,331.893 383.67,331.572 383.468,331.253 383.263,330.936 383.054,330.62 382.842,330.307 382.627,329.997 382.409,329.688 382.188,329.381 381.964,329.077 381.736,328.775 381.506,328.475 381.273,328.178 381.037,327.883 380.798,327.59 380.556,327.3 380.311,327.012 380.063,326.727 379.812,326.444 379.559,326.163 379.303,325.886 379.044,325.61 378.782,325.338 378.517,325.068 378.25,324.8 377.98,324.536 377.708,324.274 377.433,324.014 377.155,323.758 376.875,323.504 376.592,323.253 376.307,323.005 376.02,322.76 375.73,322.518 375.437,322.279 375.142,322.042 374.845,321.809 374.545,321.578 374.244,321.351 373.939,321.126 373.633,320.905 373.325,320.687 373.014,320.471 372.701,320.259 372.386,320.05 372.069,319.845 371.75,319.642 371.429,319.443 371.106,319.246 370.781,319.053 370.454,318.864 370.125,318.677 369.795,318.494 369.462,318.314 369.128,318.138 368.792,317.965 368.454,317.795 368.115,317.629 367.774,317.466 367.431,317.306 367.087,317.15 366.741,316.997 366.394,316.848 366.045,316.702 365.695,316.56 365.344,316.422 364.991,316.286 364.636,316.155 364.281,316.027 363.924,315.902 363.566,315.781 363.207,315.664 362.846,315.55 362.485,315.44 362.122,315.333 361.758,315.23 361.394,315.131 361.028,315.035 360.661,314.943 360.294,314.855 359.926,314.77 359.556,314.69 359.186,314.612 358.816,314.539 358.444,314.469 358.072,314.403 357.699,314.341 357.326,314.282 356.952,314.227 356.578,314.176 356.203,314.128 355.827,314.085 355.451,314.045 355.075,314.009 354.699,313.976 354.322,313.948 353.945,313.923 353.567,313.902 353.19,313.884 352.812,313.871 352.434,313.861 352.056,313.855 351.678,313.853 351.3,313.855 350.922,313.86 350.545,313.869 350.167,313.882 349.789,313.899 349.412,313.919 349.035,313.943 348.658,313.971 348.281,314.003 347.905,314.039 347.529,314.078 347.154,314.121 346.779,314.168 346.404,314.219 346.03,314.273 345.656,314.331 345.284,314.393 344.911,314.458 344.54,314.527 344.169,314.6 343.799,314.677 343.43,314.757 343.061,314.841 342.693,314.929 342.327,315.02 341.961,315.116 341.596,315.214 341.232,315.317 340.869,315.423 340.508,315.532 340.147,315.645 339.788,315.762 339.429,315.883 339.072,316.007 338.717,316.134 338.362,316.265 338.009,316.4 337.657,316.538 337.307,316.68 336.958,316.825 336.61,316.973 336.264,317.126 335.92,317.281 335.577,317.44 335.236,317.602 334.896,317.768 334.558,317.938 334.222,318.11 333.887,318.286 333.555,318.465 333.224,318.648 332.895,318.834 332.567,319.023 332.242,319.215 331.919,319.411 331.597,319.61 331.278,319.812 330.961,320.017 330.645,320.226 330.332,320.437 330.021,320.652 329.712,320.87 329.406,321.091 329.101,321.315 328.799,321.542 328.499,321.772 328.201,322.005 327.906,322.241 327.613,322.48 327.323,322.721 327.035,322.966 326.749,323.214 326.466,323.464 326.186,323.717 325.908,323.973 325.632,324.232 325.359,324.494 325.089,324.758 324.821,325.025 324.557,325.294 324.294,325.567 324.035,325.841 323.778,326.119 323.524,326.399 323.273,326.681 323.025,326.966 322.78,327.254 322.537,327.544 322.298,327.836 322.061,328.131 321.827,328.428 321.596,328.727 321.369,329.029 321.144,329.333 320.922,329.639 320.704,329.947 320.488,330.258 320.276,330.57 320.067,330.885 319.861,331.202 319.658,331.521 319.458,331.842 319.262,332.165 319.069,332.49 318.879,332.816 318.692,333.145 318.509,333.475 318.329,333.808 318.152,334.142 317.978,334.478 317.808,334.815 317.642,335.154 317.479,335.495 317.319,335.838 317.162,336.182 317.009,336.527 316.86,336.875 316.714,337.223 316.571,337.573 316.432,337.925 316.297,338.278 316.165,338.632 316.037,338.987 315.912,339.344 315.791,339.702 315.673,340.061 315.559,340.421 315.448,340.783 315.342,341.145 315.238,341.509 315.139,341.874 315.043,342.239 314.951,342.606 314.862,342.973 314.777,343.341 314.696,343.711 314.618,344.08 314.545,344.451 314.474,344.823 314.408,345.195 314.345,345.567 314.286,345.941 314.231,346.315 314.18,346.689 314.132,347.064 314.088,347.439 314.048,347.815 314.011,348.191 313.979,348.568 313.95,348.945 313.925,349.322 313.903,349.699 313.886,350.077 313.872,350.454 313.862,350.832 313.855,351.21 313.853,351.588 313.854,351.966 313.859,352.344 313.868,352.722 313.881,353.099 313.897,353.477 313.917,353.854 313.941,354.232 313.969,354.609 314.001,354.985 314.036,355.362 314.075,355.737 314.118,356.113 314.164,356.488 314.214,356.863 314.268,357.237 314.326,357.61 314.388,357.983 314.453,358.355 314.522,358.727 314.594,359.098 314.671,359.468 314.751,359.838 314.835,360.206 314.922,360.574 315.013,360.941 315.108,361.306 315.206,361.671 315.308,362.035 315.414,362.398 315.523,362.76 315.636,363.121 315.753,363.48 315.873,363.839 315.997,364.196 316.124,364.552 316.255,364.906 316.389,365.259 316.527,365.611 316.668,365.962 316.813,366.311 316.961,366.659 317.113,367.005 317.269,367.349 317.427,367.692 317.589,368.034 317.755,368.373 317.924,368.711 318.096,369.048 318.272,369.383 318.451,369.715 318.633,370.046 318.819,370.376 319.008,370.703 319.2,371.028 319.395,371.352 319.594,371.674 319.796,371.993 320.001,372.311 320.209,372.626 320.42,372.939 320.635,373.251 320.853,373.56 321.073,373.866 321.297,374.171 321.524,374.473 321.753,374.774 321.986,375.071 322.222,375.367 322.46,375.66 322.702,375.951 322.947,376.239 323.194,376.525 323.444,376.808 323.697,377.089 323.953,377.367 324.211,377.643 324.473,377.916 324.737,378.186 325.003,378.454 325.273,378.719 325.545,378.981 325.82,379.241 326.097,379.498 326.376,379.752 326.659,380.003 326.944,380.252 327.231,380.497 327.521,380.74 327.813,380.98 328.107,381.217 328.404,381.451 328.703,381.682 329.005,381.91 329.308,382.135 329.614,382.356 329.923,382.575 330.233,382.791 330.545,383.004 330.86,383.213 331.177,383.419 331.495,383.622 331.816,383.822 332.139,384.019 332.464,384.213 332.79,384.403 333.119,384.59 333.449,384.773 333.781,384.954 334.115,385.131 334.451,385.304 334.788,385.475 335.127,385.642 335.468,385.805 335.81,385.965 336.154,386.122 336.5,386.275 336.847,386.425 337.195,386.571 337.545,386.714 337.897,386.853 338.249,386.989 338.604,387.121 338.959,387.25 339.316,387.375 339.673,387.496 340.032,387.614 340.393,387.729 340.754,387.839 341.117,387.947 341.48,388.05 341.845,388.15 342.21,388.246 342.577,388.339 342.944,388.428 343.312,388.513 343.681,388.594 344.051,388.672 344.422,388.746 344.793,388.817 345.165,388.883 345.538,388.946 345.911,389.006 346.285,389.061 346.659,389.113 347.034,389.161 347.409,389.205 347.785,389.246 348.161,389.282 348.538,389.315 348.915,389.345 349.292,389.37 349.669,389.392 350.047,389.41 350.424,389.424 350.802,389.434 351.18,389.441 351.558,389.443 351.936,389.442 352.314,389.438 352.692,389.429 353.069,389.417 353.447,389.401 353.824,389.381 354.202,389.357 354.579,389.33 354.955,389.299 355.332,389.264 355.708,389.225 356.083,389.182 356.458,389.136 356.833,389.086 357.207,389.032 357.581,388.975 357.954,388.914 358.326,388.849 358.698,388.78 359.068,388.708 359.439,388.632 359.808,388.552 360.177,388.469 360.545,388.382 360.911,388.291 361.277,388.196 361.642,388.098 362.006,387.996 362.369,387.891 362.731,387.782 363.092,387.669 363.452,387.553 363.81,387.433 364.167,387.31 364.523,387.183 364.878,387.052 365.231,386.918 365.583,386.781 365.934,386.64 366.283,386.495 366.631,386.347 366.977,386.195 367.322,386.04 367.665,385.882 368.007,385.72 368.346,385.555 368.685,385.386 369.021,385.214 369.356,385.039 369.689,384.86 370.02,384.678 370.35,384.492 370.677,384.304 371.003,384.112 371.326,383.917 371.648,383.718 371.968,383.517 372.285,383.312 372.601,383.104 372.914,382.893 373.226,382.679 373.535,382.461 373.842,382.241 374.147,382.017 374.449,381.791 374.75,381.561 375.048,381.329 375.343,381.093 375.637,380.855 375.927,380.614 376.216,380.369 376.502,380.122 376.785,379.872 377.066,379.62 377.345,379.364 377.621,379.106 377.894,378.845 378.165,378.581 378.433,378.314 378.698,378.045 378.961,377.773 379.22,377.499 379.478,377.222 379.732,376.942 379.983,376.66 380.232,376.376 380.478,376.089 380.721,375.799 380.961,375.507 381.198,375.213 381.432,374.916 381.663,374.617 381.892,374.316 382.117,374.012 382.339,373.706 382.558,373.398 382.774,373.088 382.987,372.776 383.196,372.462 383.403,372.145 383.606,371.826 383.807,371.506 384.004,371.183 384.197,370.859 384.388,370.532 384.575,370.204 384.759,369.874 384.939,369.542 385.117,369.208 385.291,368.872 385.461,368.535 385.628,368.196 385.792,367.856 385.952,367.513 386.109,367.169 386.263,366.824 386.413,366.477 386.559,366.129 386.703,365.779 386.842,365.428 386.978,365.075 387.111,364.721 387.24,364.366 387.365,364.009 387.487,363.652 387.605,363.293 387.72,362.932 387.831,362.571 387.938,362.209 388.042,361.845 388.142,361.481 388.239,361.116 388.331,360.749 388.421,360.382 388.506,360.014 388.588,359.645 388.666,359.275 388.74,358.904 388.811,358.533 388.878,358.161 388.941,357.789 389.001,357.415 389.057,357.041 389.109,356.667 389.157,356.292 389.202,355.917 389.242,355.541 389.28,355.165 389.313,354.789 389.342,354.412 389.368,354.035 389.39,353.657 389.408,353.28 389.423,352.902 389.433,352.524 389.44,352.147 389.443,351.769 " />
<polygon points="549.795,738.772 549.793,738.394 549.788,738.016 549.778,737.638 549.765,737.26 549.748,736.883 549.727,736.505 549.703,736.128 549.674,735.751 549.642,735.375 549.606,734.998 549.567,734.623 549.523,734.247 549.476,733.872 549.425,733.498 549.371,733.124 549.313,732.75 549.25,732.377 549.185,732.005 549.115,731.634 549.042,731.263 548.965,730.893 548.884,730.524 548.8,730.155 548.712,729.788 548.62,729.421 548.525,729.055 548.426,728.69 548.323,728.327 548.217,727.964 548.107,727.602 547.994,727.242 547.877,726.883 547.756,726.524 547.632,726.167 547.504,725.812 547.372,725.457 547.238,725.104 547.099,724.753 546.957,724.402 546.812,724.053 546.663,723.706 546.51,723.36 546.355,723.016 546.195,722.673 546.033,722.332 545.867,721.993 545.697,721.655 545.524,721.319 545.348,720.984 545.168,720.652 544.986,720.321 544.799,719.992 544.61,719.665 544.417,719.34 544.221,719.017 544.022,718.695 543.82,718.376 543.614,718.059 543.406,717.744 543.194,717.431 542.979,717.12 542.761,716.811 542.54,716.505 542.315,716.2 542.088,715.898 541.858,715.599 541.625,715.301 541.389,715.006 541.149,714.714 540.907,714.423 540.662,714.135 540.415,713.85 540.164,713.567 539.911,713.287 539.654,713.009 539.395,712.734 539.134,712.461 538.869,712.191 538.602,711.924 538.332,711.659 538.06,711.397 537.785,711.138 537.507,710.881 537.227,710.628 536.944,710.377 536.659,710.129 536.371,709.884 536.081,709.641 535.789,709.402 535.494,709.166 535.197,708.932 534.897,708.702 534.595,708.474 534.291,708.25 533.985,708.028 533.676,707.81 533.366,707.595 533.053,707.383 532.738,707.174 532.421,706.968 532.102,706.765 531.781,706.566 531.458,706.37 531.133,706.177 530.806,705.987 530.477,705.801 530.146,705.618 529.814,705.438 529.48,705.261 529.144,705.088 528.806,704.918 528.467,704.752 528.126,704.589 527.783,704.43 527.439,704.273 527.093,704.121 526.746,703.972 526.397,703.826 526.047,703.684 525.695,703.545 525.342,703.41 524.988,703.278 524.633,703.15 524.276,703.025 523.918,702.905 523.558,702.787 523.198,702.673 522.836,702.563 522.474,702.457 522.11,702.354 521.746,702.254 521.38,702.159 521.013,702.067 520.646,701.979 520.277,701.894 519.908,701.813 519.538,701.736 519.168,701.662 518.796,701.592 518.424,701.526 518.051,701.464 517.678,701.405 517.304,701.35 516.929,701.299 516.554,701.252 516.179,701.208 515.803,701.168 515.427,701.132 515.05,701.1 514.674,701.071 514.296,701.046 513.919,701.025 513.541,701.008 513.164,700.994 512.786,700.985 512.408,700.979 512.03,700.976 511.652,700.978 511.274,700.983 510.896,700.992 510.519,701.005 510.141,701.022 509.764,701.043 509.387,701.067 509.01,701.095 508.633,701.127 508.257,701.162 507.881,701.202 507.505,701.245 507.13,701.291 506.756,701.342 506.382,701.396 506.008,701.454 505.635,701.516 505.263,701.582 504.892,701.651 504.521,701.724 504.151,701.8 503.781,701.881 503.413,701.965 503.045,702.053 502.678,702.144 502.313,702.239 501.948,702.338 501.584,702.44 501.221,702.546 500.859,702.656 500.499,702.769 500.139,702.886 499.781,703.006 499.424,703.13 499.068,703.257 498.714,703.389 498.361,703.523 498.009,703.661 497.659,703.803 497.31,703.948 496.962,704.097 496.616,704.249 496.272,704.405 495.929,704.564 495.587,704.726 495.248,704.892 494.91,705.061 494.574,705.234 494.239,705.409 493.906,705.589 493.575,705.771 493.246,705.957 492.919,706.146 492.594,706.339 492.271,706.535 491.949,706.733 491.63,706.936 491.312,707.141 490.997,707.349 490.684,707.561 490.373,707.776 490.064,707.993 489.757,708.214 489.453,708.438 489.151,708.665 488.851,708.895 488.553,709.128 488.258,709.364 487.965,709.603 487.675,709.845 487.387,710.09 487.101,710.337 486.818,710.588 486.537,710.841 486.259,711.097 485.984,711.356 485.711,711.617 485.441,711.881 485.173,712.148 484.908,712.418 484.646,712.69 484.387,712.965 484.13,713.242 483.876,713.522 483.625,713.805 483.377,714.09 483.131,714.377 482.889,714.667 482.649,714.959 482.413,715.254 482.179,715.551 481.948,715.851 481.721,716.152 481.496,716.456 481.274,716.762 481.056,717.071 480.84,717.381 480.628,717.694 480.419,718.009 480.213,718.325 480.01,718.644 479.81,718.965 479.614,719.288 479.42,719.613 479.23,719.94 479.044,720.268 478.86,720.599 478.68,720.931 478.504,721.265 478.33,721.601 478.16,721.939 477.994,722.278 477.83,722.619 477.671,722.961 477.514,723.305 477.361,723.651 477.212,723.998 477.066,724.347 476.923,724.697 476.784,725.048 476.649,725.401 476.517,725.755 476.388,726.111 476.264,726.467 476.142,726.825 476.025,727.185 475.911,727.545 475.8,727.906 475.693,728.269 475.59,728.632 475.491,728.997 475.395,729.363 475.302,729.729 475.214,730.097 475.129,730.465 475.048,730.834 474.97,731.204 474.896,731.575 474.826,731.946 474.76,732.318 474.697,732.691 474.638,733.064 474.583,733.438 474.531,733.812 474.484,734.187 474.44,734.563 474.4,734.939 474.363,735.315 474.33,735.691 474.302,736.068 474.276,736.445 474.255,736.823 474.237,737.2 474.224,737.578 474.214,737.956 474.207,738.334 474.205,738.711 474.206,739.089 474.211,739.467 474.22,739.845 474.233,740.223 474.249,740.601 474.269,740.978 474.293,741.355 474.321,741.732 474.352,742.109 474.388,742.485 474.427,742.861 474.469,743.236 474.516,743.612 474.566,743.986 474.62,744.36 474.678,744.734 474.739,745.107 474.805,745.479 474.874,745.851 474.946,746.221 475.023,746.592 475.103,746.961 475.186,747.33 475.274,747.697 475.365,748.064 475.46,748.43 475.558,748.795 475.66,749.159 475.766,749.522 475.875,749.883 475.988,750.244 476.104,750.604 476.225,750.962 476.348,751.319 476.476,751.675 476.606,752.03 476.741,752.383 476.879,752.735 477.02,753.085 477.165,753.434 477.313,753.782 477.465,754.128 477.62,754.473 477.779,754.816 477.941,755.157 478.107,755.497 478.276,755.835 478.448,756.171 478.624,756.506 478.803,756.839 478.985,757.17 479.171,757.499 479.36,757.826 479.552,758.152 479.747,758.475 479.946,758.797 480.148,759.116 480.353,759.434 480.561,759.749 480.772,760.063 480.987,760.374 481.204,760.683 481.425,760.99 481.649,761.295 481.875,761.597 482.105,761.897 482.338,762.195 482.574,762.49 482.812,762.783 483.054,763.074 483.298,763.362 483.546,763.648 483.796,763.931 484.049,764.212 484.305,764.49 484.563,764.766 484.824,765.039 485.089,765.309 485.355,765.577 485.625,765.842 485.897,766.105 486.171,766.364 486.448,766.621 486.728,766.875 487.011,767.127 487.295,767.375 487.583,767.621 487.872,767.864 488.164,768.103 488.459,768.34 488.756,768.574 489.055,768.805 489.356,769.033 489.66,769.258 489.966,769.48 490.274,769.699 490.585,769.914 490.897,770.127 491.212,770.336 491.528,770.543 491.847,770.746 492.168,770.946 492.491,771.142 492.815,771.336 493.142,771.526 493.47,771.713 493.801,771.897 494.133,772.077 494.467,772.254 494.803,772.428 495.14,772.598 495.479,772.765 495.82,772.928 496.162,773.089 496.506,773.245 496.852,773.398 497.199,773.548 497.547,773.694 497.897,773.837 498.249,773.976 498.601,774.112 498.955,774.244 499.311,774.373 499.667,774.498 500.025,774.62 500.384,774.738 500.745,774.852 501.106,774.963 501.468,775.07 501.832,775.173 502.196,775.273 502.562,775.37 502.928,775.462 503.296,775.551 503.664,775.636 504.033,775.718 504.403,775.795 504.773,775.87 505.145,775.94 505.517,776.007 505.889,776.07 506.263,776.129 506.637,776.184 507.011,776.236 507.386,776.284 507.761,776.328 508.137,776.369 508.513,776.406 508.89,776.439 509.266,776.468 509.644,776.493 510.021,776.515 510.398,776.533 510.776,776.547 511.154,776.557 511.532,776.564 511.91,776.567 512.288,776.566 512.666,776.561 513.043,776.553 513.421,776.54 513.799,776.524 514.176,776.504 514.553,776.481 514.93,776.453 515.307,776.422 515.683,776.387 516.059,776.348 516.435,776.306 516.81,776.26 517.185,776.21 517.559,776.156 517.932,776.098 518.305,776.037 518.678,775.972 519.049,775.904 519.42,775.831 519.79,775.755 520.16,775.676 520.529,775.592 520.896,775.505 521.263,775.414 521.629,775.32 521.994,775.222 522.358,775.12 522.721,775.014 523.083,774.905 523.444,774.793 523.803,774.677 524.162,774.557 524.519,774.433 524.875,774.306 525.23,774.176 525.583,774.042 525.935,773.904 526.286,773.763 526.635,773.618 526.983,773.47 527.329,773.319 527.674,773.164 528.017,773.005 528.358,772.843 528.698,772.678 529.036,772.51 529.373,772.337 529.708,772.162 530.041,771.983 530.372,771.801 530.701,771.616 531.029,771.427 531.354,771.235 531.678,771.04 532,770.842 532.319,770.64 532.637,770.435 532.953,770.227 533.266,770.016 533.578,769.802 533.887,769.585 534.194,769.364 534.499,769.141 534.801,768.914 535.102,768.685 535.399,768.452 535.695,768.217 535.988,767.979 536.279,767.737 536.568,767.493 536.854,767.246 537.137,766.996 537.418,766.743 537.697,766.488 537.972,766.229 538.246,765.968 538.516,765.704 538.784,765.438 539.05,765.169 539.312,764.897 539.572,764.622 539.829,764.345 540.084,764.066 540.335,763.784 540.584,763.499 540.83,763.212 541.073,762.922 541.313,762.631 541.55,762.336 541.784,762.04 542.015,761.741 542.243,761.439 542.469,761.136 542.691,760.83 542.91,760.522 543.126,760.212 543.338,759.899 543.548,759.585 543.755,759.268 543.958,758.95 544.158,758.629 544.355,758.307 544.549,757.982 544.739,757.656 544.927,757.327 545.111,756.997 545.291,756.665 545.468,756.331 545.642,755.996 545.813,755.659 545.98,755.32 546.144,754.979 546.304,754.637 546.461,754.293 546.615,753.948 546.765,753.601 546.911,753.252 547.054,752.902 547.194,752.551 547.33,752.199 547.462,751.845 547.591,751.489 547.717,751.133 547.839,750.775 547.957,750.416 548.071,750.056 548.182,749.695 548.29,749.332 548.394,748.969 548.494,748.604 548.59,748.239 548.683,747.873 548.772,747.505 548.858,747.137 548.94,746.768 549.018,746.398 549.092,746.028 549.163,745.657 549.23,745.285 549.293,744.912 549.353,744.539 549.408,744.165 549.461,743.791 549.509,743.416 549.553,743.04 549.594,742.665 549.631,742.289 549.665,741.912 549.694,741.535 549.72,741.158 549.742,740.781 549.76,740.403 549.774,740.026 549.785,739.648 549.792,739.27 549.795,738.892 " />
<polygon points="710.147,351.648 710.145,351.27 710.139,350.892 710.13,350.515 710.117,350.137 710.1,349.759 710.079,349.382 710.054,349.005 710.026,348.628 709.994,348.251 709.958,347.875 709.919,347.499 709.875,347.124 709.828,346.749 709.777,346.374 709.723,346 709.664,345.627 709.602,345.254 709.536,344.882 709.467,344.51 709.394,344.139 709.317,343.769 709.236,343.4 709.152,343.032 709.064,342.664 708.972,342.298 708.877,341.932 708.778,341.567 708.675,341.203 708.569,340.841 708.459,340.479 708.345,340.118 708.228,339.759 708.108,339.401 707.983,339.044 707.856,338.688 707.724,338.334 707.589,337.981 707.451,337.629 707.309,337.279 707.164,336.93 707.015,336.583 706.862,336.237 706.706,335.892 706.547,335.55 706.384,335.209 706.218,334.869 706.049,334.531 705.876,334.195 705.7,333.861 705.52,333.528 705.337,333.197 705.151,332.869 704.962,332.541 704.769,332.216 704.573,331.893 704.374,331.572 704.172,331.253 703.966,330.936 703.757,330.62 703.546,330.307 703.331,329.997 703.113,329.688 702.891,329.381 702.667,329.077 702.44,328.775 702.21,328.475 701.977,328.178 701.74,327.883 701.501,327.59 701.259,327.3 701.014,327.012 700.766,326.727 700.516,326.444 700.262,326.163 700.006,325.886 699.747,325.61 699.485,325.338 699.221,325.068 698.954,324.8 698.684,324.536 698.412,324.274 698.137,324.014 697.859,323.758 697.579,323.504 697.296,323.253 697.011,323.005 696.723,322.76 696.433,322.518 696.141,322.279 695.846,322.042 695.548,321.809 695.249,321.578 694.947,321.351 694.643,321.126 694.337,320.905 694.028,320.687 693.717,320.471 693.405,320.259 693.09,320.05 692.773,319.845 692.454,319.642 692.133,319.443 691.809,319.246 691.485,319.053 691.158,318.864 690.829,318.677 690.498,318.494 690.166,318.314 689.832,318.138 689.496,317.965 689.158,317.795 688.819,317.629 688.477,317.466 688.135,317.306 687.791,317.15 687.445,316.997 687.098,316.848 686.749,316.702 686.399,316.56 686.047,316.422 685.694,316.286 685.34,316.155 684.984,316.027 684.628,315.902 684.269,315.781 683.91,315.664 683.55,315.55 683.188,315.44 682.826,315.333 682.462,315.23 682.097,315.131 681.732,315.035 681.365,314.943 680.998,314.855 680.629,314.77 680.26,314.69 679.89,314.612 679.519,314.539 679.148,314.469 678.776,314.403 678.403,314.341 678.03,314.282 677.656,314.227 677.281,314.176 676.906,314.128 676.531,314.085 676.155,314.045 675.779,314.009 675.402,313.976 675.025,313.948 674.648,313.923 674.271,313.902 673.893,313.884 673.516,313.871 673.138,313.861 672.76,313.855 672.382,313.853 672.004,313.855 671.626,313.86 671.248,313.869 670.87,313.882 670.493,313.899 670.115,313.919 669.738,313.943 669.361,313.971 668.985,314.003 668.608,314.039 668.233,314.078 667.857,314.121 667.482,314.168 667.108,314.219 666.733,314.273 666.36,314.331 665.987,314.393 665.615,314.458 665.243,314.527 664.873,314.6 664.502,314.677 664.133,314.757 663.765,314.841 663.397,314.929 663.03,315.02 662.664,315.116 662.3,315.214 661.936,315.317 661.573,315.423 661.211,315.532 660.851,315.645 660.491,315.762 660.133,315.883 659.776,316.007 659.42,316.134 659.066,316.265 658.712,316.4 658.361,316.538 658.01,316.68 657.661,316.825 657.314,316.973 656.968,317.126 656.623,317.281 656.281,317.44 655.939,317.602 655.6,317.768 655.262,317.938 654.925,318.11 654.591,318.286 654.258,318.465 653.927,318.648 653.598,318.834 653.271,319.023 652.946,319.215 652.622,319.411 652.301,319.61 651.982,319.812 651.664,320.017 651.349,320.226 651.036,320.437 650.725,320.652 650.416,320.87 650.109,321.091 649.805,321.315 649.503,321.542 649.203,321.772 648.905,322.005 648.61,322.241 648.317,322.48 648.026,322.721 647.738,322.966 647.453,323.214 647.17,323.464 646.889,323.717 646.611,323.973 646.336,324.232 646.063,324.494 645.793,324.758 645.525,325.025 645.26,325.294 644.998,325.567 644.738,325.841 644.482,326.119 644.228,326.399 643.977,326.681 643.729,326.966 643.483,327.254 643.241,327.544 643.001,327.836 642.764,328.131 642.531,328.428 642.3,328.727 642.072,329.029 641.848,329.333 641.626,329.639 641.407,329.947 641.192,330.258 640.98,330.57 640.77,330.885 640.564,331.202 640.362,331.521 640.162,331.842 639.965,332.165 639.772,332.49 639.582,332.816 639.396,333.145 639.212,333.475 639.032,333.808 638.855,334.142 638.682,334.478 638.512,334.815 638.345,335.154 638.182,335.495 638.022,335.838 637.866,336.182 637.713,336.527 637.564,336.875 637.418,337.223 637.275,337.573 637.136,337.925 637.001,338.278 636.869,338.632 636.74,338.987 636.615,339.344 636.494,339.702 636.376,340.061 636.262,340.421 636.152,340.783 636.045,341.145 635.942,341.509 635.842,341.874 635.746,342.239 635.654,342.606 635.566,342.973 635.481,343.341 635.399,343.711 635.322,344.08 635.248,344.451 635.178,344.823 635.112,345.195 635.049,345.567 634.99,345.941 634.935,346.315 634.883,346.689 634.836,347.064 634.792,347.439 634.751,347.815 634.715,348.191 634.682,348.568 634.653,348.945 634.628,349.322 634.607,349.699 634.589,350.077 634.575,350.454 634.565,350.832 634.559,351.21 634.557,351.588 634.558,351.966 634.563,352.344 634.572,352.722 634.584,353.099 634.601,353.477 634.621,353.854 634.645,354.232 634.673,354.609 634.704,354.985 634.739,355.362 634.778,355.737 634.821,356.113 634.868,356.488 634.918,356.863 634.972,357.237 635.03,357.61 635.091,357.983 635.156,358.355 635.225,358.727 635.298,359.098 635.374,359.468 635.454,359.838 635.538,360.206 635.626,360.574 635.717,360.941 635.811,361.306 635.91,361.671 636.012,362.035 636.118,362.398 636.227,362.76 636.34,363.121 636.456,363.48 636.576,363.839 636.7,364.196 636.827,364.552 636.958,364.906 637.092,365.259 637.23,365.611 637.372,365.962 637.517,366.311 637.665,366.659 637.817,367.005 637.972,367.349 638.131,367.692 638.293,368.034 638.459,368.373 638.627,368.711 638.8,369.048 638.975,369.383 639.154,369.715 639.337,370.046 639.522,370.376 639.711,370.703 639.904,371.028 640.099,371.352 640.298,371.674 640.499,371.993 640.704,372.311 640.913,372.626 641.124,372.939 641.339,373.251 641.556,373.56 641.777,373.866 642,374.171 642.227,374.473 642.457,374.774 642.69,375.071 642.925,375.367 643.164,375.66 643.406,375.951 643.65,376.239 643.897,376.525 644.148,376.808 644.401,377.089 644.656,377.367 644.915,377.643 645.176,377.916 645.44,378.186 645.707,378.454 645.976,378.719 646.248,378.981 646.523,379.241 646.8,379.498 647.08,379.752 647.362,380.003 647.647,380.252 647.934,380.497 648.224,380.74 648.516,380.98 648.811,381.217 649.108,381.451 649.407,381.682 649.708,381.91 650.012,382.135 650.318,382.356 650.626,382.575 650.936,382.791 651.249,383.004 651.564,383.213 651.88,383.419 652.199,383.622 652.52,383.822 652.842,384.019 653.167,384.213 653.494,384.403 653.822,384.59 654.153,384.773 654.485,384.954 654.819,385.131 655.154,385.304 655.492,385.475 655.831,385.642 656.172,385.805 656.514,385.965 656.858,386.122 657.203,386.275 657.55,386.425 657.899,386.571 658.249,386.714 658.6,386.853 658.953,386.989 659.307,387.121 659.662,387.25 660.019,387.375 660.377,387.496 660.736,387.614 661.096,387.729 661.458,387.839 661.82,387.947 662.184,388.05 662.548,388.15 662.914,388.246 663.28,388.339 663.647,388.428 664.016,388.513 664.385,388.594 664.755,388.672 665.125,388.746 665.496,388.817 665.869,388.883 666.241,388.946 666.614,389.006 666.988,389.061 667.363,389.113 667.738,389.161 668.113,389.205 668.489,389.246 668.865,389.282 669.241,389.315 669.618,389.345 669.995,389.37 670.373,389.392 670.75,389.41 671.128,389.424 671.506,389.434 671.884,389.441 672.261,389.443 672.639,389.442 673.017,389.438 673.395,389.429 673.773,389.417 674.151,389.401 674.528,389.381 674.905,389.357 675.282,389.33 675.659,389.299 676.035,389.264 676.411,389.225 676.787,389.182 677.162,389.136 677.536,389.086 677.911,389.032 678.284,388.975 678.657,388.914 679.029,388.849 679.401,388.78 679.772,388.708 680.142,388.632 680.512,388.552 680.88,388.469 681.248,388.382 681.615,388.291 681.981,388.196 682.346,388.098 682.71,387.996 683.073,387.891 683.435,387.782 683.796,387.669 684.155,387.553 684.514,387.433 684.871,387.31 685.227,387.183 685.582,387.052 685.935,386.918 686.287,386.781 686.638,386.64 686.987,386.495 687.334,386.347 687.681,386.195 688.025,386.04 688.369,385.882 688.71,385.72 689.05,385.555 689.388,385.386 689.725,385.214 690.059,385.039 690.393,384.86 690.724,384.678 691.053,384.492 691.381,384.304 691.706,384.112 692.03,383.917 692.352,383.718 692.671,383.517 692.989,383.312 693.305,383.104 693.618,382.893 693.929,382.679 694.239,382.461 694.546,382.241 694.85,382.017 695.153,381.791 695.453,381.561 695.751,381.329 696.047,381.093 696.34,380.855 696.631,380.614 696.919,380.369 697.205,380.122 697.489,379.872 697.77,379.62 698.048,379.364 698.324,379.106 698.598,378.845 698.868,378.581 699.136,378.314 699.401,378.045 699.664,377.773 699.924,377.499 700.181,377.222 700.435,376.942 700.687,376.66 700.936,376.376 701.181,376.089 701.424,375.799 701.665,375.507 701.902,375.213 702.136,374.916 702.367,374.617 702.595,374.316 702.82,374.012 703.042,373.706 703.261,373.398 703.477,373.088 703.69,372.776 703.9,372.462 704.107,372.145 704.31,371.826 704.51,371.506 704.707,371.183 704.901,370.859 705.091,370.532 705.278,370.204 705.462,369.874 705.643,369.542 705.82,369.208 705.994,368.872 706.165,368.535 706.332,368.196 706.496,367.856 706.656,367.513 706.813,367.169 706.966,366.824 707.116,366.477 707.263,366.129 707.406,365.779 707.546,365.428 707.682,365.075 707.814,364.721 707.943,364.366 708.069,364.009 708.19,363.652 708.309,363.293 708.423,362.932 708.534,362.571 708.642,362.209 708.745,361.845 708.846,361.481 708.942,361.116 709.035,360.749 709.124,360.382 709.21,360.014 709.291,359.645 709.37,359.275 709.444,358.904 709.515,358.533 709.582,358.161 709.645,357.789 709.704,357.415 709.76,357.041 709.812,356.667 709.861,356.292 709.905,355.917 709.946,355.541 709.983,355.165 710.016,354.789 710.046,354.412 710.072,354.035 710.094,353.657 710.112,353.28 710.126,352.902 710.137,352.524 710.144,352.147 710.147,351.769 " />
<polygon points="323.024,512 323.022,511.622 323.016,511.244 323.007,510.866 322.993,510.489 322.976,510.111 322.956,509.734 322.931,509.356 322.903,508.98 322.871,508.603 322.835,508.227 322.795,507.851 322.752,507.475 322.705,507.1 322.654,506.726 322.599,506.352 322.541,505.979 322.479,505.606 322.413,505.234 322.343,504.862 322.27,504.491 322.193,504.121 322.113,503.752 322.028,503.384 321.94,503.016 321.849,502.649 321.753,502.284 321.654,501.919 321.552,501.555 321.445,501.192 321.336,500.831 321.222,500.47 321.105,500.111 320.984,499.753 320.86,499.396 320.732,499.04 320.601,498.686 320.466,498.333 320.327,497.981 320.186,497.631 320.04,497.282 319.891,496.934 319.739,496.589 319.583,496.244 319.424,495.902 319.261,495.56 319.095,495.221 318.925,494.883 318.753,494.547 318.576,494.213 318.397,493.88 318.214,493.549 318.028,493.22 317.838,492.893 317.646,492.568 317.45,492.245 317.251,491.924 317.048,491.604 316.843,491.287 316.634,490.972 316.422,490.659 316.207,490.348 315.989,490.04 315.768,489.733 315.544,489.429 315.317,489.127 315.086,488.827 314.853,488.53 314.617,488.235 314.378,487.942 314.136,487.652 313.891,487.364 313.643,487.078 313.392,486.795 313.139,486.515 312.883,486.237 312.624,485.962 312.362,485.689 312.098,485.419 311.83,485.152 311.561,484.887 311.288,484.625 311.013,484.366 310.735,484.11 310.455,483.856 310.173,483.605 309.887,483.357 309.6,483.112 309.31,482.87 309.017,482.63 308.722,482.394 308.425,482.16 308.125,481.93 307.824,481.703 307.52,481.478 307.213,481.257 306.905,481.038 306.594,480.823 306.281,480.611 305.966,480.402 305.649,480.196 305.33,479.994 305.009,479.794 304.686,479.598 304.361,479.405 304.034,479.216 303.705,479.029 303.375,478.846 303.042,478.666 302.708,478.49 302.372,478.317 302.034,478.147 301.695,477.98 301.354,477.817 301.011,477.658 300.667,477.502 300.321,477.349 299.974,477.2 299.626,477.054 299.275,476.912 298.924,476.773 298.571,476.638 298.217,476.506 297.861,476.378 297.504,476.254 297.146,476.133 296.787,476.015 296.426,475.902 296.065,475.792 295.702,475.685 295.339,475.582 294.974,475.483 294.608,475.387 294.242,475.295 293.874,475.207 293.506,475.122 293.137,475.041 292.767,474.964 292.396,474.891 292.024,474.821 291.652,474.755 291.28,474.692 290.906,474.634 290.532,474.579 290.158,474.528 289.783,474.48 289.407,474.436 289.032,474.397 288.655,474.36 288.279,474.328 287.902,474.299 287.525,474.275 287.147,474.253 286.77,474.236 286.392,474.223 286.014,474.213 285.636,474.207 285.258,474.205 284.88,474.206 284.503,474.212 284.125,474.221 283.747,474.234 283.369,474.25 282.992,474.271 282.615,474.295 282.238,474.323 281.861,474.355 281.485,474.391 281.109,474.43 280.734,474.473 280.359,474.52 279.984,474.57 279.61,474.625 279.237,474.683 278.864,474.744 278.491,474.81 278.12,474.879 277.749,474.952 277.379,475.029 277.01,475.109 276.641,475.193 276.274,475.281 275.907,475.372 275.541,475.467 275.176,475.566 274.812,475.668 274.45,475.774 274.088,475.884 273.727,475.997 273.368,476.114 273.01,476.234 272.652,476.358 272.297,476.486 271.942,476.617 271.589,476.752 271.237,476.89 270.887,477.031 270.538,477.177 270.19,477.325 269.844,477.477 269.5,477.633 269.157,477.792 268.816,477.954 268.476,478.12 268.138,478.289 267.802,478.462 267.467,478.638 267.135,478.817 266.804,479 266.475,479.186 266.148,479.375 265.822,479.567 265.499,479.763 265.178,479.962 264.858,480.164 264.541,480.369 264.226,480.578 263.912,480.789 263.601,481.004 263.292,481.222 262.986,481.443 262.681,481.667 262.379,481.894 262.079,482.124 261.782,482.357 261.486,482.593 261.193,482.831 260.903,483.073 260.615,483.318 260.329,483.565 260.046,483.816 259.766,484.069 259.488,484.325 259.212,484.584 258.939,484.845 258.669,485.11 258.402,485.377 258.137,485.646 257.874,485.918 257.615,486.193 257.358,486.471 257.104,486.751 256.853,487.033 256.605,487.318 256.36,487.606 256.117,487.896 255.878,488.188 255.641,488.483 255.407,488.78 255.177,489.079 254.949,489.381 254.724,489.685 254.503,489.991 254.284,490.299 254.069,490.61 253.856,490.922 253.647,491.237 253.441,491.554 253.238,491.873 253.038,492.194 252.842,492.516 252.649,492.841 252.459,493.168 252.272,493.497 252.089,493.827 251.909,494.159 251.732,494.494 251.559,494.829 251.389,495.167 251.222,495.506 251.059,495.847 250.899,496.19 250.742,496.534 250.59,496.879 250.44,497.226 250.294,497.575 250.152,497.925 250.013,498.277 249.877,498.629 249.745,498.984 249.617,499.339 249.492,499.696 249.371,500.054 249.253,500.413 249.139,500.773 249.029,501.135 248.922,501.497 248.818,501.861 248.719,502.225 248.623,502.591 248.531,502.958 248.442,503.325 248.357,503.693 248.276,504.062 248.198,504.432 248.125,504.803 248.055,505.174 247.988,505.546 247.925,505.919 247.867,506.292 247.811,506.666 247.76,507.041 247.712,507.416 247.668,507.791 247.628,508.167 247.591,508.543 247.559,508.92 247.53,509.296 247.505,509.674 247.483,510.051 247.466,510.428 247.452,510.806 247.442,511.184 247.436,511.562 247.433,511.94 247.434,512.318 247.439,512.696 247.448,513.074 247.461,513.451 247.477,513.829 247.498,514.206 247.521,514.583 247.549,514.96 247.581,515.337 247.616,515.713 247.655,516.089 247.698,516.465 247.744,516.84 247.795,517.214 247.849,517.589 247.906,517.962 247.968,518.335 248.033,518.707 248.102,519.079 248.175,519.45 248.251,519.82 248.331,520.189 248.415,520.558 248.502,520.926 248.593,521.292 248.688,521.658 248.786,522.023 248.888,522.387 248.994,522.75 249.103,523.112 249.216,523.472 249.333,523.832 249.453,524.19 249.577,524.547 249.704,524.903 249.835,525.258 249.969,525.611 250.107,525.963 250.248,526.314 250.393,526.663 250.542,527.01 250.693,527.356 250.849,527.701 251.007,528.044 251.17,528.385 251.335,528.725 251.504,529.063 251.676,529.4 251.852,529.734 252.031,530.067 252.213,530.398 252.399,530.727 252.588,531.055 252.78,531.38 252.976,531.704 253.174,532.025 253.376,532.345 253.581,532.662 253.789,532.978 254.001,533.291 254.215,533.602 254.433,533.911 254.653,534.218 254.877,534.523 255.104,534.825 255.334,535.125 255.566,535.423 255.802,535.719 256.041,536.012 256.282,536.302 256.527,536.591 256.774,536.876 257.024,537.16 257.277,537.44 257.533,537.719 257.792,537.994 258.053,538.267 258.317,538.538 258.584,538.806 258.853,539.071 259.125,539.333 259.4,539.593 259.677,539.85 259.957,540.104 260.239,540.355 260.524,540.604 260.811,540.849 261.101,541.092 261.393,541.332 261.687,541.569 261.984,541.803 262.283,542.033 262.585,542.261 262.889,542.486 263.195,542.708 263.503,542.927 263.813,543.143 264.126,543.355 264.44,543.565 264.757,543.771 265.076,543.974 265.396,544.174 265.719,544.371 266.044,544.564 266.37,544.755 266.699,544.941 267.029,545.125 267.361,545.305 267.695,545.482 268.031,545.656 268.368,545.826 268.707,545.993 269.048,546.157 269.391,546.317 269.735,546.474 270.08,546.627 270.427,546.776 270.776,546.923 271.125,547.066 271.477,547.205 271.83,547.341 272.184,547.473 272.539,547.601 272.896,547.727 273.254,547.848 273.613,547.966 273.973,548.08 274.334,548.191 274.697,548.298 275.06,548.402 275.425,548.502 275.79,548.598 276.157,548.69 276.524,548.779 276.892,548.865 277.261,548.946 277.631,549.024 278.002,549.098 278.373,549.168 278.745,549.235 279.118,549.298 279.491,549.357 279.865,549.413 280.239,549.465 280.614,549.513 280.99,549.557 281.365,549.597 281.741,549.634 282.118,549.667 282.495,549.696 282.872,549.722 283.249,549.743 283.627,549.761 284.004,549.775 284.382,549.786 284.76,549.792 285.138,549.795 285.516,549.794 285.894,549.789 286.272,549.781 286.65,549.769 287.027,549.752 287.405,549.733 287.782,549.709 288.159,549.682 288.535,549.65 288.912,549.615 289.288,549.577 289.663,549.534 290.038,549.488 290.413,549.438 290.787,549.384 291.161,549.327 291.534,549.266 291.906,549.201 292.278,549.132 292.649,549.06 293.019,548.984 293.388,548.904 293.757,548.82 294.125,548.733 294.492,548.643 294.857,548.548 295.222,548.45 295.586,548.348 295.949,548.243 296.311,548.134 296.672,548.021 297.032,547.905 297.39,547.785 297.747,547.662 298.103,547.535 298.458,547.404 298.811,547.27 299.163,547.133 299.514,546.991 299.863,546.847 300.211,546.699 300.557,546.547 300.902,546.392 301.245,546.234 301.587,546.072 301.927,545.907 302.265,545.738 302.601,545.566 302.936,545.39 303.269,545.212 303.6,545.03 303.93,544.844 304.257,544.656 304.583,544.464 304.906,544.269 305.228,544.07 305.548,543.869 305.865,543.664 306.181,543.456 306.495,543.245 306.806,543.03 307.115,542.813 307.422,542.593 307.727,542.369 308.03,542.143 308.33,541.913 308.628,541.681 308.923,541.445 309.217,541.207 309.508,540.966 309.796,540.721 310.082,540.474 310.366,540.224 310.646,539.971 310.925,539.716 311.201,539.458 311.474,539.196 311.745,538.933 312.013,538.666 312.278,538.397 312.541,538.125 312.801,537.851 313.058,537.574 313.312,537.294 313.564,537.012 313.812,536.727 314.058,536.44 314.301,536.151 314.541,535.859 314.778,535.565 315.012,535.268 315.244,534.969 315.472,534.668 315.697,534.364 315.919,534.058 316.138,533.75 316.354,533.44 316.567,533.128 316.777,532.813 316.983,532.497 317.186,532.178 317.387,531.858 317.584,531.535 317.777,531.211 317.968,530.884 318.155,530.556 318.339,530.226 318.52,529.894 318.697,529.56 318.871,529.224 319.041,528.887 319.208,528.548 319.372,528.207 319.533,527.865 319.69,527.521 319.843,527.176 319.993,526.829 320.14,526.481 320.283,526.131 320.422,525.78 320.558,525.427 320.691,525.073 320.82,524.718 320.945,524.361 321.067,524.003 321.185,523.644 321.3,523.284 321.411,522.923 321.518,522.561 321.622,522.197 321.722,521.833 321.819,521.467 321.912,521.101 322.001,520.734 322.086,520.365 322.168,519.997 322.246,519.627 322.321,519.256 322.391,518.885 322.458,518.513 322.522,518.14 322.581,517.767 322.637,517.393 322.689,517.019 322.737,516.644 322.782,516.269 322.823,515.893 322.86,515.517 322.893,515.14 322.922,514.764 322.948,514.387 322.97,514.009 322.988,513.632 323.003,513.254 323.013,512.876 323.02,512.498 323.023,512.12 " />
<polygon points="389.444,672.352 389.442,671.974 389.436,671.596 389.426,671.218 389.413,670.84 389.396,670.463 389.375,670.085 389.351,669.708 389.323,669.331 389.291,668.955 389.255,668.579 389.215,668.203 389.172,667.827 389.125,667.452 389.074,667.078 389.019,666.704 388.961,666.33 388.899,665.957 388.833,665.585 388.763,665.214 388.69,664.843 388.613,664.473 388.533,664.104 388.448,663.735 388.36,663.368 388.269,663.001 388.173,662.635 388.074,662.271 387.972,661.907 387.865,661.544 387.755,661.183 387.642,660.822 387.525,660.463 387.404,660.104 387.28,659.748 387.152,659.392 387.021,659.037 386.886,658.684 386.747,658.333 386.605,657.982 386.46,657.634 386.311,657.286 386.159,656.94 386.003,656.596 385.844,656.253 385.681,655.912 385.515,655.573 385.345,655.235 385.172,654.899 384.996,654.564 384.817,654.232 384.634,653.901 384.448,653.572 384.258,653.245 384.066,652.92 383.87,652.597 383.67,652.275 383.468,651.956 383.263,651.639 383.054,651.324 382.842,651.011 382.627,650.7 382.409,650.391 382.188,650.085 381.964,649.781 381.736,649.479 381.506,649.179 381.273,648.881 381.037,648.586 380.798,648.294 380.556,648.003 380.311,647.716 380.063,647.43 379.812,647.147 379.559,646.867 379.303,646.589 379.044,646.314 378.782,646.041 378.517,645.771 378.25,645.504 377.98,645.239 377.708,644.977 377.433,644.718 377.155,644.461 376.875,644.208 376.592,643.957 376.307,643.709 376.02,643.464 375.73,643.221 375.437,642.982 375.142,642.746 374.845,642.512 374.545,642.282 374.244,642.054 373.939,641.83 373.633,641.609 373.325,641.39 373.014,641.175 372.701,640.963 372.386,640.754 372.069,640.548 371.75,640.346 371.429,640.146 371.106,639.95 370.781,639.757 370.454,639.567 370.125,639.381 369.795,639.198 369.462,639.018 369.128,638.841 368.792,638.668 368.454,638.499 368.115,638.332 367.774,638.169 367.431,638.01 367.087,637.854 366.741,637.701 366.394,637.552 366.045,637.406 365.695,637.264 365.344,637.125 364.991,636.99 364.636,636.858 364.281,636.73 363.924,636.606 363.566,636.485 363.207,636.367 362.846,636.253 362.485,636.143 362.122,636.037 361.758,635.934 361.394,635.835 361.028,635.739 360.661,635.647 360.294,635.559 359.926,635.474 359.556,635.393 359.186,635.316 358.816,635.242 358.444,635.173 358.072,635.106 357.699,635.044 357.326,634.985 356.952,634.93 356.578,634.879 356.203,634.832 355.827,634.788 355.451,634.748 355.075,634.712 354.699,634.68 354.322,634.651 353.945,634.626 353.567,634.605 353.19,634.588 352.812,634.574 352.434,634.565 352.056,634.559 351.678,634.557 351.3,634.558 350.922,634.563 350.545,634.573 350.167,634.586 349.789,634.602 349.412,634.623 349.035,634.647 348.658,634.675 348.281,634.707 347.905,634.742 347.529,634.782 347.154,634.825 346.779,634.872 346.404,634.922 346.03,634.976 345.656,635.034 345.284,635.096 344.911,635.162 344.54,635.231 344.169,635.304 343.799,635.381 343.43,635.461 343.061,635.545 342.693,635.633 342.327,635.724 341.961,635.819 341.596,635.918 341.232,636.02 340.869,636.126 340.508,636.236 340.147,636.349 339.788,636.466 339.429,636.586 339.072,636.71 338.717,636.838 338.362,636.969 338.009,637.103 337.657,637.241 337.307,637.383 336.958,637.528 336.61,637.677 336.264,637.829 335.92,637.985 335.577,638.144 335.236,638.306 334.896,638.472 334.558,638.641 334.222,638.814 333.887,638.99 333.555,639.169 333.224,639.351 332.895,639.537 332.567,639.727 332.242,639.919 331.919,640.115 331.597,640.314 331.278,640.516 330.961,640.721 330.645,640.929 330.332,641.141 330.021,641.356 329.712,641.574 329.406,641.794 329.101,642.018 328.799,642.245 328.499,642.475 328.201,642.708 327.906,642.944 327.613,643.183 327.323,643.425 327.035,643.67 326.749,643.917 326.466,644.168 326.186,644.421 325.908,644.677 325.632,644.936 325.359,645.197 325.089,645.461 324.821,645.728 324.557,645.998 324.294,646.27 324.035,646.545 323.778,646.822 323.524,647.102 323.273,647.385 323.025,647.67 322.78,647.957 322.537,648.247 322.298,648.54 322.061,648.834 321.827,649.131 321.596,649.431 321.369,649.732 321.144,650.036 320.922,650.342 320.704,650.651 320.488,650.961 320.276,651.274 320.067,651.589 319.861,651.906 319.658,652.224 319.458,652.545 319.262,652.868 319.069,653.193 318.879,653.52 318.692,653.848 318.509,654.179 318.329,654.511 318.152,654.845 317.978,655.181 317.808,655.519 317.642,655.858 317.479,656.199 317.319,656.541 317.162,656.885 317.009,657.231 316.86,657.578 316.714,657.927 316.571,658.277 316.432,658.628 316.297,658.981 316.165,659.335 316.037,659.691 315.912,660.048 315.791,660.406 315.673,660.765 315.559,661.125 315.448,661.486 315.342,661.849 315.238,662.213 315.139,662.577 315.043,662.943 314.951,663.309 314.862,663.677 314.777,664.045 314.696,664.414 314.618,664.784 314.545,665.155 314.474,665.526 314.408,665.898 314.345,666.271 314.286,666.644 314.231,667.018 314.18,667.393 314.132,667.767 314.088,668.143 314.048,668.519 314.011,668.895 313.979,669.271 313.95,669.648 313.925,670.025 313.903,670.403 313.886,670.78 313.872,671.158 313.862,671.536 313.855,671.914 313.853,672.292 313.854,672.67 313.859,673.047 313.868,673.425 313.881,673.803 313.897,674.181 313.917,674.558 313.941,674.935 313.969,675.312 314.001,675.689 314.036,676.065 314.075,676.441 314.118,676.817 314.164,677.192 314.214,677.566 314.268,677.94 314.326,678.314 314.388,678.687 314.453,679.059 314.522,679.431 314.594,679.802 314.671,680.172 314.751,680.541 314.835,680.91 314.922,681.277 315.013,681.644 315.108,682.01 315.206,682.375 315.308,682.739 315.414,683.102 315.523,683.464 315.636,683.824 315.753,684.184 315.873,684.542 315.997,684.899 316.124,685.255 316.255,685.61 316.389,685.963 316.527,686.315 316.668,686.665 316.813,687.014 316.961,687.362 317.113,687.708 317.269,688.053 317.427,688.396 317.589,688.737 317.755,689.077 317.924,689.415 318.096,689.751 318.272,690.086 318.451,690.419 318.633,690.75 318.819,691.079 319.008,691.407 319.2,691.732 319.395,692.056 319.594,692.377 319.796,692.697 320.001,693.014 320.209,693.33 320.42,693.643 320.635,693.954 320.853,694.263 321.073,694.57 321.297,694.875 321.524,695.177 321.753,695.477 321.986,695.775 322.222,696.07 322.46,696.363 322.702,696.654 322.947,696.942 323.194,697.228 323.444,697.511 323.697,697.792 323.953,698.07 324.211,698.346 324.473,698.619 324.737,698.89 325.003,699.157 325.273,699.422 325.545,699.685 325.82,699.945 326.097,700.201 326.376,700.456 326.659,700.707 326.944,700.955 327.231,701.201 327.521,701.444 327.813,701.683 328.107,701.92 328.404,702.154 328.703,702.385 329.005,702.613 329.308,702.838 329.614,703.06 329.923,703.279 330.233,703.494 330.545,703.707 330.86,703.917 331.177,704.123 331.495,704.326 331.816,704.526 332.139,704.723 332.464,704.916 332.79,705.106 333.119,705.293 333.449,705.477 333.781,705.657 334.115,705.834 334.451,706.008 334.788,706.178 335.127,706.345 335.468,706.509 335.81,706.669 336.154,706.825 336.5,706.979 336.847,707.128 337.195,707.275 337.545,707.417 337.897,707.557 338.249,707.692 338.604,707.825 338.959,707.953 339.316,708.078 339.673,708.2 340.032,708.318 340.393,708.432 340.754,708.543 341.117,708.65 341.48,708.754 341.845,708.853 342.21,708.95 342.577,709.042 342.944,709.131 343.312,709.216 343.681,709.298 344.051,709.376 344.422,709.45 344.793,709.52 345.165,709.587 345.538,709.65 345.911,709.709 346.285,709.765 346.659,709.816 347.034,709.864 347.409,709.909 347.785,709.949 348.161,709.986 348.538,710.019 348.915,710.048 349.292,710.074 349.669,710.095 350.047,710.113 350.424,710.127 350.802,710.138 351.18,710.144 351.558,710.147 351.936,710.146 352.314,710.141 352.692,710.133 353.069,710.12 353.447,710.104 353.824,710.084 354.202,710.061 354.579,710.033 354.955,710.002 355.332,709.967 355.708,709.928 356.083,709.886 356.458,709.84 356.833,709.79 357.207,709.736 357.581,709.679 357.954,709.617 358.326,709.552 358.698,709.484 359.068,709.411 359.439,709.335 359.808,709.256 360.177,709.172 360.545,709.085 360.911,708.994 361.277,708.9 361.642,708.802 362.006,708.7 362.369,708.595 362.731,708.486 363.092,708.373 363.452,708.257 363.81,708.137 364.167,708.013 364.523,707.886 364.878,707.756 365.231,707.622 365.583,707.484 365.934,707.343 366.283,707.199 366.631,707.051 366.977,706.899 367.322,706.744 367.665,706.585 368.007,706.424 368.346,706.258 368.685,706.09 369.021,705.918 369.356,705.742 369.689,705.563 370.02,705.381 370.35,705.196 370.677,705.007 371.003,704.815 371.326,704.62 371.648,704.422 371.968,704.22 372.285,704.016 372.601,703.808 372.914,703.596 373.226,703.382 373.535,703.165 373.842,702.945 374.147,702.721 374.449,702.495 374.75,702.265 375.048,702.033 375.343,701.797 375.637,701.559 375.927,701.317 376.216,701.073 376.502,700.826 376.785,700.576 377.066,700.323 377.345,700.068 377.621,699.809 377.894,699.548 378.165,699.284 378.433,699.018 378.698,698.749 378.961,698.477 379.22,698.202 379.478,697.925 379.732,697.646 379.983,697.364 380.232,697.079 380.478,696.792 380.721,696.503 380.961,696.211 381.198,695.916 381.432,695.62 381.663,695.321 381.892,695.019 382.117,694.716 382.339,694.41 382.558,694.102 382.774,693.792 382.987,693.48 383.196,693.165 383.403,692.849 383.606,692.53 383.807,692.209 384.004,691.887 384.197,691.562 384.388,691.236 384.575,690.908 384.759,690.577 384.939,690.245 385.117,689.912 385.291,689.576 385.461,689.239 385.628,688.9 385.792,688.559 385.952,688.217 386.109,687.873 386.263,687.528 386.413,687.181 386.559,686.832 386.703,686.483 386.842,686.131 386.978,685.779 387.111,685.425 387.24,685.069 387.365,684.713 387.487,684.355 387.605,683.996 387.72,683.636 387.831,683.275 387.938,682.912 388.042,682.549 388.142,682.184 388.239,681.819 388.331,681.453 388.421,681.085 388.506,680.717 388.588,680.348 388.666,679.978 388.74,679.608 388.811,679.237 388.878,678.865 388.941,678.492 389.001,678.119 389.057,677.745 389.109,677.371 389.157,676.996 389.202,676.621 389.242,676.245 389.28,675.869 389.313,675.492 389.342,675.115 389.368,674.738 389.39,674.361 389.408,673.983 389.423,673.606 389.433,673.228 389.44,672.85 389.443,672.472 " />
<polygon points="710.147,672.352 710.145,671.974 710.139,671.596 710.13,671.218 710.117,670.84 710.1,670.463 710.079,670.085 710.054,669.708 710.026,669.331 709.994,668.955 709.958,668.579 709.919,668.203 709.875,667.827 709.828,667.452 709.777,667.078 709.723,666.704 709.664,666.33 709.602,665.957 709.536,665.585 709.467,665.214 709.394,664.843 709.317,664.473 709.236,664.104 709.152,663.735 709.064,663.368 708.972,663.001 708.877,662.635 708.778,662.271 708.675,661.907 708.569,661.544 708.459,661.183 708.345,660.822 708.228,660.463 708.108,660.104 707.983,659.748 707.856,659.392 707.724,659.037 707.589,658.684 707.451,658.333 707.309,657.982 707.164,657.634 707.015,657.286 706.862,656.94 706.706,656.596 706.547,656.253 706.384,655.912 706.218,655.573 706.049,655.235 705.876,654.899 705.7,654.564 705.52,654.232 705.337,653.901 705.151,653.572 704.962,653.245 704.769,652.92 704.573,652.597 704.374,652.275 704.172,651.956 703.966,651.639 703.757,651.324 703.546,651.011 703.331,650.7 703.113,650.391 702.891,650.085 702.667,649.781 702.44,649.479 702.21,649.179 701.977,648.881 701.74,648.586 701.501,648.294 701.259,648.003 701.014,647.716 700.766,647.43 700.516,647.147 700.262,646.867 700.006,646.589 699.747,646.314 699.485,646.041 699.221,645.771 698.954,645.504 698.684,645.239 698.412,644.977 698.137,644.718 697.859,644.461 697.579,644.208 697.296,643.957 697.011,643.709 696.723,643.464 696.433,643.221 696.141,642.982 695.846,642.746 695.548,642.512 695.249,642.282 694.947,642.054 694.643,641.83 694.337,641.609 694.028,641.39 693.717,641.175 693.405,640.963 693.09,640.754 692.773,640.548 692.454,640.346 692.133,640.146 691.809,639.95 691.485,639.757 691.158,639.567 690.829,639.381 690.498,639.198 690.166,639.018 689.832,638.841 689.496,638.668 689.158,638.499 688.819,638.332 688.477,638.169 688.135,638.01 687.791,637.854 687.445,637.701 687.098,637.552 686.749,637.406 686.399,637.264 686.047,637.125 685.694,636.99 685.34,636.858 684.984,636.73 684.628,636.606 684.269,636.485 683.91,636.367 683.55,636.253 683.188,636.143 682.826,636.037 682.462,635.934 682.097,635.835 681.732,635.739 681.365,635.647 680.998,635.559 680.629,635.474 680.26,635.393 679.89,635.316 679.519,635.242 679.148,635.173 678.776,635.106 678.403,635.044 678.03,634.985 677.656,634.93 677.281,634.879 676.906,634.832 676.531,634.788 676.155,634.748 675.779,634.712 675.402,634.68 675.025,634.651 674.648,634.626 674.271,634.605 673.893,634.588 673.516,634.574 673.138,634.565 672.76,634.559 672.382,634.557 672.004,634.558 671.626,634.563 671.248,634.573 670.87,634.586 670.493,634.602 670.115,634.623 669.738,634.647 669.361,634.675 668.985,634.707 668.608,634.742 668.233,634.782 667.857,634.825 667.482,634.872 667.108,634.922 666.733,634.976 666.36,635.034 665.987,635.096 665.615,635.162 665.243,635.231 664.873,635.304 664.502,635.381 664.133,635.461 663.765,635.545 663.397,635.633 663.03,635.724 662.664,635.819 662.3,635.918 661.936,636.02 661.573,636.126 661.211,636.236 660.851,636.349 660.491,636.466 660.133,636.586 659.776,636.71 659.42,636.838 659.066,636.969 658.712,637.103 658.361,637.241 658.01,637.383 657.661,637.528 657.314,637.677 656.968,637.829 656.623,637.985 656.281,638.144 655.939,638.306 655.6,638.472 655.262,638.641 654.925,638.814 654.591,638.99 654.258,639.169 653.927,639.351 653.598,639.537 653.271,639.727 652.946,639.919 652.622,640.115 652.301,640.314 651.982,640.516 651.664,640.721 651.349,640.929 651.036,641.141 650.725,641.356 650.416,641.574 650.109,641.794 649.805,642.018 649.503,642.245 649.203,642.475 648.905,642.708 648.61,642.944 648.317,643.183 648.026,643.425 647.738,643.67 647.453,643.917 647.17,644.168 646.889,644.421 646.611,644.677 646.336,644.936 646.063,645.197 645.793,645.461 645.525,645.728 645.26,645.998 644.998,646.27 644.738,646.545 644.482,646.822 644.228,647.102 643.977,647.385 643.729,647.67 643.483,647.957 643.241,648.247 643.001,648.54 642.764,648.834 642.531,649.131 642.3,649.431 642.072,649.732 641.848,650.036 641.626,650.342 641.407,650.651 641.192,650.961 640.98,651.274 640.77,651.589 640.564,651.906 640.362,652.224 640.162,652.545 639.965,652.868 639.772,653.193 639.582,653.52 639.396,653.848 639.212,654.179 639.032,654.511 638.855,654.845 638.682,655.181 638.512,655.519 638.345,655.858 638.182,656.199 638.022,656.541 637.866,656.885 637.713,657.231 637.564,657.578 637.418,657.927 637.275,658.277 637.136,658.628 637.001,658.981 636.869,659.335 636.74,659.691 636.615,660.048 636.494,660.406 636.376,660.765 636.262,661.125 636.152,661.486 636.045,661.849 635.942,662.213 635.842,662.577 635.746,662.943 635.654,663.309 635.566,663.677 635.481,664.045 635.399,664.414 635.322,664.784 635.248,665.155 635.178,665.526 635.112,665.898 635.049,666.271 634.99,666.644 634.935,667.018 634.883,667.393 634.836,667.767 634.792,668.143 634.751,668.519 634.715,668.895 634.682,669.271 634.653,669.648 634.628,670.025 634.607,670.403 634.589,670.78 634.575,671.158 634.565,671.536 634.559,671.914 634.557,672.292 634.558,672.67 634.563,673.047 634.572,673.425 634.584,673.803 634.601,674.181 634.621,674.558 634.645,674.935 634.673,675.312 634.704,675.689 634.739,676.065 634.778,676.441 634.821,676.817 634.868,677.192 634.918,677.566 634.972,677.94 635.03,678.314 635.091,678.687 635.156,679.059 635.225,679.431 635.298,679.802 635.374,680.172 635.454,680.541 635.538,680.91 635.626,681.277 635.717,681.644 635.811,682.01 635.91,682.375 636.012,682.739 636.118,683.102 636.227,683.464 636.34,683.824 636.456,684.184 636.576,684.542 636.7,684.899 636.827,685.255 636.958,685.61 637.092,685.963 637.23,686.315 637.372,686.665 637.517,687.014 637.665,687.362 637.817,687.708 637.972,688.053 638.131,688.396 638.293,688.737 638.459,689.077 638.627,689.415 638.8,689.751 638.975,690.086 639.154,690.419 639.337,690.75 639.522,691.079 639.711,691.407 639.904,691.732 640.099,692.056 640.298,692.377 640.499,692.697 640.704,693.014 640.913,693.33 641.124,693.643 641.339,693.954 641.556,694.263 641.777,694.57 642,694.875 642.227,695.177 642.457,695.477 642.69,695.775 642.925,696.07 643.164,696.363 643.406,696.654 643.65,696.942 643.897,697.228 644.148,697.511 644.401,697.792 644.656,698.07 644.915,698.346 645.176,698.619 645.44,698.89 645.707,699.157 645.976,699.422 646.248,699.685 646.523,699.945 646.8,700.201 647.08,700.456 647.362,700.707 647.647,700.955 647.934,701.201 648.224,701.444 648.516,701.683 648.811,701.92 649.108,702.154 649.407,702.385 649.708,702.613 650.012,702.838 650.318,703.06 650.626,703.279 650.936,703.494 651.249,703.707 651.564,703.917 651.88,704.123 652.199,704.326 652.52,704.526 652.842,704.723 653.167,704.916 653.494,705.106 653.822,705.293 654.153,705.477 654.485,705.657 654.819,705.834 655.154,706.008 655.492,706.178 655.831,706.345 656.172,706.509 656.514,706.669 656.858,706.825 657.203,706.979 657.55,707.128 657.899,707.275 658.249,707.417 658.6,707.557 658.953,707.692 659.307,707.825 659.662,707.953 660.019,708.078 660.377,708.2 660.736,708.318 661.096,708.432 661.458,708.543 661.82,708.65 662.184,708.754 662.548,708.853 662.914,708.95 663.28,709.042 663.647,709.131 664.016,709.216 664.385,709.298 664.755,709.376 665.125,709.45 665.496,709.52 665.869,709.587 666.241,709.65 666.614,709.709 666.988,709.765 667.363,709.816 667.738,709.864 668.113,709.909 668.489,709.949 668.865,709.986 669.241,710.019 669.618,710.048 669.995,710.074 670.373,710.095 670.75,710.113 671.128,710.127 671.506,710.138 671.884,710.144 672.261,710.147 672.639,710.146 673.017,710.141 673.395,710.133 673.773,710.12 674.151,710.104 674.528,710.084 674.905,710.061 675.282,710.033 675.659,710.002 676.035,709.967 676.411,709.928 676.787,709.886 677.162,709.84 677.536,709.79 677.911,709.736 678.284,709.679 678.657,709.617 679.029,709.552 679.401,709.484 679.772,709.411 680.142,709.335 680.512,709.256 680.88,709.172 681.248,709.085 681.615,708.994 681.981,708.9 682.346,708.802 682.71,708.7 683.073,708.595 683.435,708.486 683.796,708.373 684.155,708.257 684.514,708.137 684.871,708.013 685.227,707.886 685.582,707.756 685.935,707.622 686.287,707.484 686.638,707.343 686.987,707.199 687.334,707.051 687.681,706.899 688.025,706.744 688.369,706.585 688.71,706.424 689.05,706.258 689.388,706.09 689.725,705.918 690.059,705.742 690.393,705.563 690.724,705.381 691.053,705.196 691.381,705.007 691.706,704.815 692.03,704.62 692.352,704.422 692.671,704.22 692.989,704.016 693.305,703.808 693.618,703.596 693.929,703.382 694.239,703.165 694.546,702.945 694.85,702.721 695.153,702.495 695.453,702.265 695.751,702.033 696.047,701.797 696.34,701.559 696.631,701.317 696.919,701.073 697.205,700.826 697.489,700.576 697.77,700.323 698.048,700.068 698.324,699.809 698.598,699.548 698.868,699.284 699.136,699.018 699.401,698.749 699.664,698.477 699.924,698.202 700.181,697.925 700.435,697.646 700.687,697.364 700.936,697.079 701.181,696.792 701.424,696.503 701.665,696.211 701.902,695.916 702.136,695.62 702.367,695.321 702.595,695.019 702.82,694.716 703.042,694.41 703.261,694.102 703.477,693.792 703.69,693.48 703.9,693.165 704.107,692.849 704.31,692.53 704.51,692.209 704.707,691.887 704.901,691.562 705.091,691.236 705.278,690.908 705.462,690.577 705.643,690.245 705.82,689.912 705.994,689.576 706.165,689.239 706.332,688.9 706.496,688.559 706.656,688.217 706.813,687.873 706.966,687.528 707.116,687.181 707.263,686.832 707.406,686.483 707.546,686.131 707.682,685.779 707.814,685.425 707.943,685.069 708.069,684.713 708.19,684.355 708.309,683.996 708.423,683.636 708.534,683.275 708.642,682.912 708.745,682.549 708.846,682.184 708.942,681.819 709.035,681.453 709.124,681.085 709.21,680.717 709.291,680.348 709.37,679.978 709.444,679.608 709.515,679.237 709.582,678.865 709.645,678.492 709.704,678.119 709.76,677.745 709.812,677.371 709.861,676.996 709.905,676.621 709.946,676.245 709.983,675.869 710.016,675.492 710.046,675.115 710.072,674.738 710.094,674.361 710.112,673.983 710.126,673.606 710.137,673.228 710.144,672.85 710.147,672.472 " />
<polygon points="549.795,285.228 549.793,284.85 549.788,284.472 549.778,284.095 549.765,283.717 549.748,283.339 549.727,282.962 549.703,282.585 549.674,282.208 549.642,281.831 549.606,281.455 549.567,281.079 549.523,280.704 549.476,280.329 549.425,279.954 549.371,279.58 549.313,279.207 549.25,278.834 549.185,278.462 549.115,278.09 549.042,277.72 548.965,277.35 548.884,276.98 548.8,276.612 548.712,276.244 548.62,275.878 548.525,275.512 548.426,275.147 548.323,274.783 548.217,274.421 548.107,274.059 547.994,273.699 547.877,273.339 547.756,272.981 547.632,272.624 547.504,272.268 547.372,271.914 547.238,271.561 547.099,271.209 546.957,270.859 546.812,270.51 546.663,270.163 546.51,269.817 546.355,269.473 546.195,269.13 546.033,268.789 545.867,268.449 545.697,268.111 545.524,267.775 545.348,267.441 545.168,267.108 544.986,266.778 544.799,266.449 544.61,266.122 544.417,265.796 544.221,265.473 544.022,265.152 543.82,264.833 543.614,264.516 543.406,264.201 543.194,263.888 542.979,263.577 542.761,263.268 542.54,262.961 542.315,262.657 542.088,262.355 541.858,262.055 541.625,261.758 541.389,261.463 541.149,261.17 540.907,260.88 540.662,260.592 540.415,260.307 540.164,260.024 539.911,259.743 539.654,259.466 539.395,259.19 539.134,258.918 538.869,258.648 538.602,258.38 538.332,258.116 538.06,257.854 537.785,257.594 537.507,257.338 537.227,257.084 536.944,256.833 536.659,256.585 536.371,256.34 536.081,256.098 535.789,255.859 535.494,255.622 535.197,255.389 534.897,255.158 534.595,254.931 534.291,254.706 533.985,254.485 533.676,254.267 533.366,254.052 533.053,253.839 532.738,253.631 532.421,253.425 532.102,253.222 531.781,253.023 531.458,252.826 531.133,252.634 530.806,252.444 530.477,252.257 530.146,252.074 529.814,251.895 529.48,251.718 529.144,251.545 528.806,251.375 528.467,251.209 528.126,251.046 527.783,250.886 527.439,250.73 527.093,250.578 526.746,250.428 526.397,250.283 526.047,250.14 525.695,250.002 525.342,249.866 524.988,249.735 524.633,249.607 524.276,249.482 523.918,249.361 523.558,249.244 523.198,249.13 522.836,249.02 522.474,248.913 522.11,248.81 521.746,248.711 521.38,248.615 521.013,248.524 520.646,248.435 520.277,248.351 519.908,248.27 519.538,248.192 519.168,248.119 518.796,248.049 518.424,247.983 518.051,247.921 517.678,247.862 517.304,247.807 516.929,247.756 516.554,247.708 516.179,247.665 515.803,247.625 515.427,247.589 515.05,247.556 514.674,247.528 514.296,247.503 513.919,247.482 513.541,247.465 513.164,247.451 512.786,247.441 512.408,247.435 512.03,247.433 511.652,247.435 511.274,247.44 510.896,247.449 510.519,247.462 510.141,247.479 509.764,247.499 509.387,247.524 509.01,247.552 508.633,247.583 508.257,247.619 507.881,247.658 507.505,247.701 507.13,247.748 506.756,247.799 506.382,247.853 506.008,247.911 505.635,247.973 505.263,248.038 504.892,248.108 504.521,248.18 504.151,248.257 503.781,248.337 503.413,248.422 503.045,248.509 502.678,248.601 502.313,248.696 501.948,248.794 501.584,248.897 501.221,249.003 500.859,249.112 500.499,249.225 500.139,249.342 499.781,249.463 499.424,249.587 499.068,249.714 498.714,249.845 498.361,249.98 498.009,250.118 497.659,250.26 497.31,250.405 496.962,250.554 496.616,250.706 496.272,250.861 495.929,251.02 495.587,251.183 495.248,251.348 494.91,251.518 494.574,251.69 494.239,251.866 493.906,252.045 493.575,252.228 493.246,252.414 492.919,252.603 492.594,252.796 492.271,252.991 491.949,253.19 491.63,253.392 491.312,253.598 490.997,253.806 490.684,254.018 490.373,254.232 490.064,254.45 489.757,254.671 489.453,254.895 489.151,255.122 488.851,255.352 488.553,255.585 488.258,255.821 487.965,256.06 487.675,256.302 487.387,256.546 487.101,256.794 486.818,257.044 486.537,257.297 486.259,257.553 485.984,257.812 485.711,258.074 485.441,258.338 485.173,258.605 484.908,258.875 484.646,259.147 484.387,259.422 484.13,259.699 483.876,259.979 483.625,260.261 483.377,260.546 483.131,260.834 482.889,261.124 482.649,261.416 482.413,261.711 482.179,262.008 481.948,262.307 481.721,262.609 481.496,262.913 481.274,263.219 481.056,263.527 480.84,263.838 480.628,264.151 480.419,264.465 480.213,264.782 480.01,265.101 479.81,265.422 479.614,265.745 479.42,266.07 479.23,266.396 479.044,266.725 478.86,267.056 478.68,267.388 478.504,267.722 478.33,268.058 478.16,268.395 477.994,268.735 477.83,269.075 477.671,269.418 477.514,269.762 477.361,270.108 477.212,270.455 477.066,270.803 476.923,271.153 476.784,271.505 476.649,271.858 476.517,272.212 476.388,272.567 476.264,272.924 476.142,273.282 476.025,273.641 475.911,274.002 475.8,274.363 475.693,274.726 475.59,275.089 475.491,275.454 475.395,275.819 475.302,276.186 475.214,276.553 475.129,276.922 475.048,277.291 474.97,277.661 474.896,278.031 474.826,278.403 474.76,278.775 474.697,279.147 474.638,279.521 474.583,279.895 474.531,280.269 474.484,280.644 474.44,281.019 474.4,281.395 474.363,281.771 474.33,282.148 474.302,282.525 474.276,282.902 474.255,283.279 474.237,283.657 474.224,284.034 474.214,284.412 474.207,284.79 474.205,285.168 474.206,285.546 474.211,285.924 474.22,286.302 474.233,286.68 474.249,287.057 474.269,287.435 474.293,287.812 474.321,288.189 474.352,288.565 474.388,288.942 474.427,289.318 474.469,289.693 474.516,290.068 474.566,290.443 474.62,290.817 474.678,291.19 474.739,291.563 474.805,291.936 474.874,292.307 474.946,292.678 475.023,293.048 475.103,293.418 475.186,293.786 475.274,294.154 475.365,294.521 475.46,294.887 475.558,295.252 475.66,295.615 475.766,295.978 475.875,296.34 475.988,296.701 476.104,297.06 476.225,297.419 476.348,297.776 476.476,298.132 476.606,298.486 476.741,298.84 476.879,299.191 477.02,299.542 477.165,299.891 477.313,300.239 477.465,300.585 477.62,300.929 477.779,301.272 477.941,301.614 478.107,301.954 478.276,302.292 478.448,302.628 478.624,302.963 478.803,303.296 478.985,303.627 479.171,303.956 479.36,304.283 479.552,304.609 479.747,304.932 479.946,305.254 480.148,305.573 480.353,305.891 480.561,306.206 480.772,306.519 480.987,306.831 481.204,307.14 481.425,307.447 481.649,307.751 481.875,308.054 482.105,308.354 482.338,308.651 482.574,308.947 482.812,309.24 483.054,309.531 483.298,309.819 483.546,310.105 483.796,310.388 484.049,310.669 484.305,310.947 484.563,311.223 484.824,311.496 485.089,311.766 485.355,312.034 485.625,312.299 485.897,312.561 486.171,312.821 486.448,313.078 486.728,313.332 487.011,313.583 487.295,313.832 487.583,314.078 487.872,314.32 488.164,314.56 488.459,314.797 488.756,315.031 489.055,315.262 489.356,315.49 489.66,315.715 489.966,315.937 490.274,316.155 490.585,316.371 490.897,316.584 491.212,316.793 491.528,316.999 491.847,317.203 492.168,317.402 492.491,317.599 492.815,317.793 493.142,317.983 493.47,318.17 493.801,318.353 494.133,318.534 494.467,318.711 494.803,318.884 495.14,319.055 495.479,319.222 495.82,319.385 496.162,319.545 496.506,319.702 496.852,319.855 497.199,320.005 497.547,320.151 497.897,320.294 498.249,320.433 498.601,320.569 498.955,320.701 499.311,320.83 499.667,320.955 500.025,321.076 500.384,321.194 500.745,321.309 501.106,321.42 501.468,321.527 501.832,321.63 502.196,321.73 502.562,321.826 502.928,321.919 503.296,322.008 503.664,322.093 504.033,322.174 504.403,322.252 504.773,322.326 505.145,322.397 505.517,322.463 505.889,322.526 506.263,322.586 506.637,322.641 507.011,322.693 507.386,322.741 507.761,322.785 508.137,322.826 508.513,322.862 508.89,322.895 509.266,322.925 509.644,322.95 510.021,322.972 510.398,322.99 510.776,323.004 511.154,323.014 511.532,323.021 511.91,323.024 512.288,323.023 512.666,323.018 513.043,323.009 513.421,322.997 513.799,322.981 514.176,322.961 514.553,322.937 514.93,322.91 515.307,322.879 515.683,322.844 516.059,322.805 516.435,322.763 516.81,322.716 517.185,322.666 517.559,322.613 517.932,322.555 518.305,322.494 518.678,322.429 519.049,322.36 519.42,322.288 519.79,322.212 520.16,322.132 520.529,322.049 520.896,321.962 521.263,321.871 521.629,321.776 521.994,321.678 522.358,321.577 522.721,321.471 523.083,321.362 523.444,321.249 523.803,321.133 524.162,321.013 524.519,320.89 524.875,320.763 525.23,320.633 525.583,320.498 525.935,320.361 526.286,320.22 526.635,320.075 526.983,319.927 527.329,319.776 527.674,319.62 528.017,319.462 528.358,319.3 528.698,319.135 529.036,318.966 529.373,318.794 529.708,318.619 530.041,318.44 530.372,318.258 530.701,318.073 531.029,317.884 531.354,317.692 531.678,317.497 532,317.298 532.319,317.097 532.637,316.892 532.953,316.684 533.266,316.473 533.578,316.259 533.887,316.041 534.194,315.821 534.499,315.598 534.801,315.371 535.102,315.142 535.399,314.909 535.695,314.674 535.988,314.435 536.279,314.194 536.568,313.95 536.854,313.703 537.137,313.453 537.418,313.2 537.697,312.944 537.972,312.686 538.246,312.425 538.516,312.161 538.784,311.894 539.05,311.625 539.312,311.353 539.572,311.079 539.829,310.802 540.084,310.522 540.335,310.24 540.584,309.956 540.83,309.669 541.073,309.379 541.313,309.087 541.55,308.793 541.784,308.496 542.015,308.197 542.243,307.896 542.469,307.592 542.691,307.287 542.91,306.979 543.126,306.668 543.338,306.356 543.548,306.042 543.755,305.725 543.958,305.407 544.158,305.086 544.355,304.763 544.549,304.439 544.739,304.112 544.927,303.784 545.111,303.454 545.291,303.122 545.468,302.788 545.642,302.453 545.813,302.115 545.98,301.776 546.144,301.436 546.304,301.093 546.461,300.75 546.615,300.404 546.765,300.057 546.911,299.709 547.054,299.359 547.194,299.008 547.33,298.655 547.462,298.301 547.591,297.946 547.717,297.589 547.839,297.232 547.957,296.873 548.071,296.513 548.182,296.151 548.29,295.789 548.394,295.426 548.494,295.061 548.59,294.696 548.683,294.329 548.772,293.962 548.858,293.594 548.94,293.225 549.018,292.855 549.092,292.485 549.163,292.113 549.23,291.741 549.293,291.369 549.353,290.995 549.408,290.622 549.461,290.247 549.509,289.872 549.553,289.497 549.594,289.121 549.631,288.745 549.665,288.369 549.694,287.992 549.72,287.615 549.742,287.238 549.76,286.86 549.774,286.482 549.785,286.105 549.792,285.727 549.795,285.349 " />
<polygon points="738.772,512 738.76,509.732 738.726,507.465 738.67,505.198 738.59,502.932 738.488,500.666 738.364,498.402 738.216,496.139 738.046,493.878 737.854,491.618 737.639,489.361 737.401,487.105 737.141,484.853 736.858,482.603 736.553,480.356 736.225,478.112 735.875,475.871 735.503,473.634 735.108,471.401 734.691,469.172 734.251,466.947 733.79,464.727 733.306,462.512 732.8,460.301 732.272,458.096 731.722,455.896 731.15,453.701 730.556,451.513 729.94,449.33 729.303,447.154 728.643,444.984 727.962,442.821 727.26,440.665 726.536,438.516 725.79,436.375 725.023,434.24 724.235,432.114 723.425,429.996 722.595,427.886 721.743,425.784 720.871,423.691 719.977,421.607 719.063,419.531 718.128,417.466 717.172,415.409 716.196,413.362 715.199,411.325 714.182,409.298 713.145,407.282 712.088,405.275 711.011,403.28 709.914,401.295 708.797,399.322 707.66,397.359 706.504,395.409 705.328,393.469 704.133,391.542 702.919,389.627 701.686,387.724 700.434,385.833 699.163,383.955 697.873,382.09 696.565,380.238 695.238,378.399 693.893,376.573 692.529,374.761 691.148,372.962 689.749,371.178 688.331,369.408 686.897,367.651 685.445,365.91 683.975,364.183 682.488,362.47 680.984,360.773 679.464,359.091 677.926,357.424 676.372,355.772 674.802,354.136 673.215,352.516 671.612,350.912 669.993,349.324 668.359,347.752 666.708,346.197 665.043,344.658 663.362,343.136 661.665,341.631 659.954,340.143 658.228,338.672 656.488,337.218 654.733,335.782 652.964,334.364 651.18,332.963 649.383,331.58 647.572,330.215 645.747,328.869 643.909,327.54 642.058,326.231 640.194,324.939 638.317,323.667 636.427,322.413 634.525,321.178 632.611,319.963 630.685,318.766 628.746,317.589 626.796,316.431 624.835,315.293 622.862,314.175 620.879,313.076 618.884,311.997 616.879,310.938 614.863,309.899 612.837,308.881 610.8,307.883 608.754,306.905 606.699,305.948 604.633,305.011 602.559,304.095 600.475,303.2 598.383,302.326 596.282,301.472 594.172,300.64 592.055,299.829 589.929,299.039 587.796,298.27 585.655,297.523 583.506,296.797 581.351,296.093 579.188,295.41 577.019,294.749 574.843,294.11 572.661,293.492 570.473,292.897 568.279,292.323 566.08,291.771 563.875,291.241 561.665,290.734 559.449,290.248 557.23,289.785 555.005,289.343 552.776,288.925 550.544,288.528 548.307,288.154 546.067,287.802 543.823,287.472 541.576,287.165 539.327,286.881 537.074,286.619 534.819,286.379 532.562,286.162 530.302,285.968 528.041,285.796 525.778,285.647 523.514,285.521 521.249,285.417 518.983,285.336 516.716,285.277 514.448,285.242 512.181,285.228 509.913,285.238 507.645,285.27 505.378,285.325 503.112,285.403 500.847,285.503 498.582,285.626 496.319,285.771 494.058,285.939 491.798,286.13 489.54,286.343 487.285,286.579 485.032,286.838 482.782,287.119 480.534,287.422 478.29,287.748 476.049,288.096 473.812,288.467 471.579,288.86 469.35,289.275 467.124,289.713 464.904,290.173 462.688,290.655 460.477,291.159 458.271,291.685 456.071,292.234 453.876,292.804 451.687,293.396 449.504,294.01 447.327,294.646 445.157,295.303 442.993,295.983 440.837,296.684 438.687,297.406 436.545,298.15 434.41,298.915 432.283,299.702 430.164,300.509 428.053,301.338 425.951,302.188 423.857,303.059 421.772,303.951 419.696,304.864 417.63,305.797 415.572,306.751 413.525,307.726 411.487,308.721 409.459,309.736 407.442,310.771 405.435,311.827 403.438,312.903 401.453,313.998 399.478,315.114 397.515,316.249 395.563,317.403 393.623,318.577 391.695,319.771 389.779,320.983 387.875,322.215 385.983,323.466 384.104,324.735 382.238,326.024 380.385,327.331 378.545,328.656 376.718,330 374.905,331.362 373.105,332.741 371.32,334.139 369.548,335.555 367.791,336.988 366.048,338.439 364.32,339.907 362.606,341.393 360.907,342.895 359.224,344.415 357.556,345.951 355.903,347.503 354.266,349.073 352.645,350.658 351.039,352.26 349.45,353.877 347.877,355.511 346.32,357.16 344.78,358.824 343.257,360.504 341.75,362.199 340.261,363.909 338.788,365.634 337.333,367.373 335.896,369.127 334.476,370.895 333.074,372.677 331.69,374.474 330.323,376.283 328.975,378.107 327.646,379.944 326.334,381.794 325.041,383.657 323.767,385.533 322.512,387.422 321.276,389.323 320.059,391.236 318.861,393.162 317.682,395.099 316.523,397.048 315.383,399.008 314.263,400.98 313.163,402.963 312.082,404.957 311.022,406.961 309.981,408.976 308.961,411.002 307.961,413.037 306.982,415.082 306.023,417.137 305.085,419.202 304.167,421.276 303.27,423.358 302.394,425.45 301.539,427.55 300.705,429.659 299.893,431.776 299.101,433.901 298.331,436.034 297.582,438.175 296.854,440.322 296.148,442.477 295.464,444.639 294.801,446.808 294.16,448.983 293.541,451.165 292.943,453.352 292.368,455.546 291.814,457.745 291.283,459.95 290.773,462.159 290.286,464.374 289.821,466.594 289.378,468.818 288.957,471.046 288.559,473.278 288.183,475.515 287.829,477.755 287.498,479.998 287.189,482.245 286.903,484.494 286.639,486.746 286.398,489.001 286.179,491.258 285.983,493.518 285.809,495.779 285.658,498.041 285.53,500.305 285.424,502.571 285.342,504.837 285.281,507.104 285.244,509.371 285.229,511.639 285.236,513.907 285.267,516.174 285.32,518.441 285.396,520.708 285.494,522.973 285.615,525.238 285.759,527.501 285.925,529.762 286.114,532.022 286.325,534.28 286.56,536.536 286.816,538.789 287.095,541.039 287.397,543.287 287.721,545.531 288.068,547.772 288.436,550.01 288.828,552.243 289.241,554.473 289.677,556.699 290.135,558.92 290.616,561.136 291.118,563.347 291.643,565.553 292.189,567.754 292.758,569.949 293.348,572.139 293.96,574.322 294.594,576.5 295.25,578.67 295.928,580.835 296.627,582.992 297.348,585.142 298.09,587.285 298.853,589.42 299.638,591.548 300.444,593.667 301.271,595.779 302.12,597.882 302.989,599.976 303.879,602.062 304.79,604.139 305.722,606.206 306.674,608.264 307.647,610.313 308.641,612.351 309.654,614.38 310.688,616.398 311.742,618.406 312.816,620.403 313.91,622.389 315.024,624.365 316.157,626.329 317.311,628.282 318.483,630.223 319.675,632.152 320.886,634.069 322.116,635.974 323.366,637.867 324.634,639.747 325.92,641.614 327.226,643.468 328.55,645.309 329.892,647.137 331.252,648.951 332.631,650.752 334.027,652.539 335.442,654.311 336.874,656.07 338.323,657.814 339.79,659.543 341.274,661.258 342.775,662.958 344.293,664.642 345.828,666.312 347.379,667.966 348.947,669.604 350.531,671.227 352.131,672.834 353.748,674.424 355.38,675.999 357.028,677.557 358.691,679.098 360.37,680.623 362.063,682.131 363.772,683.621 365.496,685.095 367.234,686.551 368.987,687.99 370.754,689.412 372.535,690.815 374.33,692.201 376.139,693.569 377.961,694.918 379.797,696.249 381.646,697.562 383.508,698.856 385.383,700.132 387.271,701.389 389.171,702.626 391.083,703.845 393.008,705.045 394.944,706.225 396.892,707.386 398.852,708.527 400.823,709.649 402.805,710.751 404.798,711.833 406.801,712.895 408.816,713.936 410.84,714.958 412.875,715.96 414.919,716.941 416.973,717.901 419.037,718.841 421.11,719.76 423.192,720.659 425.283,721.537 427.383,722.393 429.491,723.229 431.607,724.043 433.732,724.837 435.864,725.609 438.004,726.359 440.151,727.089 442.306,727.796 444.467,728.483 446.635,729.147 448.81,729.79 450.991,730.411 453.178,731.01 455.371,731.587 457.57,732.143 459.774,732.676 461.983,733.187 464.197,733.676 466.417,734.143 468.64,734.588 470.868,735.01 473.1,735.41 475.336,735.788 477.576,736.144 479.819,736.477 482.066,736.787 484.315,737.075 486.567,737.341 488.822,737.584 491.079,737.805 493.338,738.002 495.599,738.178 497.861,738.33 500.125,738.461 502.39,738.568 504.656,738.653 506.923,738.715 509.191,738.754 511.458,738.771 513.726,738.765 515.993,738.736 518.261,738.685 520.527,738.611 522.793,738.515 525.057,738.395 527.321,738.254 529.582,738.089 531.842,737.902 534.1,737.692 536.356,737.46 538.609,737.205 540.86,736.928 543.108,736.628 545.353,736.306 547.594,735.961 549.832,735.594 552.066,735.204 554.296,734.792 556.521,734.358 558.743,733.902 560.959,733.423 563.171,732.923 565.378,732.4 567.579,731.855 569.775,731.289 571.965,730.7 574.149,730.089 576.327,729.457 578.498,728.803 580.663,728.127 582.82,727.429 584.971,726.711 587.114,725.97 589.25,725.208 591.379,724.425 593.499,723.621 595.611,722.795 597.715,721.949 599.81,721.081 601.896,720.192 603.974,719.283 606.042,718.353 608.101,717.402 610.15,716.431 612.189,715.439 614.218,714.427 616.238,713.395 618.246,712.342 620.244,711.27 622.232,710.178 624.208,709.065 626.173,707.934 628.126,706.782 630.068,705.611 631.999,704.421 633.917,703.211 635.823,701.982 637.716,700.735 639.597,699.468 641.466,698.183 643.321,696.879 645.163,695.556 646.992,694.216 648.807,692.857 650.609,691.479 652.397,690.084 654.171,688.672 655.93,687.241 657.676,685.793 659.406,684.328 661.122,682.845 662.823,681.345 664.509,679.829 666.18,678.295 667.835,676.745 669.474,675.178 671.098,673.596 672.706,671.997 674.298,670.382 675.874,668.751 677.433,667.104 678.976,665.442 680.502,663.765 682.011,662.072 683.503,660.364 684.978,658.642 686.436,656.905 687.876,655.153 689.299,653.387 690.704,651.607 692.091,649.813 693.46,648.006 694.811,646.184 696.144,644.35 697.458,642.502 698.754,640.64 700.031,638.766 701.289,636.88 702.529,634.981 703.749,633.069 704.95,631.146 706.132,629.21 707.294,627.263 708.437,625.305 709.56,623.335 710.664,621.353 711.747,619.361 712.811,617.359 713.854,615.345 714.878,613.322 715.881,611.288 716.863,609.244 717.825,607.191 718.767,605.128 719.688,603.055 720.588,600.974 721.467,598.884 722.326,596.785 723.163,594.677 723.979,592.561 724.774,590.438 725.548,588.306 726.3,586.167 727.031,584.02 727.741,581.866 728.429,579.705 729.095,577.538 729.739,575.364 730.362,573.183 730.963,570.996 731.542,568.804 732.099,566.606 732.634,564.402 733.147,562.193 733.638,559.979 734.107,557.76 734.553,555.537 734.977,553.309 735.379,551.077 735.759,548.842 736.116,546.602 736.451,544.36 736.763,542.113 737.053,539.864 737.321,537.612 737.565,535.358 737.788,533.101 737.987,530.842 738.165,528.582 738.319,526.319 738.451,524.055 738.56,521.79 738.647,519.524 738.711,517.257 738.752,514.99 738.771,512.722 " />
</g>
</svg>
